M48
;DRILL file {KiCad (2015-07-07 BZR 5906)-product} date Fri 21 Aug 2015 11:04:32 CEST
;FORMAT={-:-/ absolute / metric / decimal}
FMAT,2
METRIC,TZ
T1C0.800
T2C0.800
T3C1.000
T4C1.001
T5C1.224
%
G90
G05
M71
T1
X77.47Y-134.62
X77.47Y-139.7
X77.47Y-144.78
X77.47Y-149.86
X88.265Y-130.81
X88.265Y-141.605
X88.265Y-149.225
X90.805Y-130.81
X90.805Y-141.605
X90.805Y-149.225
X93.345Y-130.81
X93.345Y-141.605
X93.345Y-149.225
X94.615Y-118.745
X95.25Y-123.825
X97.155Y-118.745
X98.425Y-132.715
X98.425Y-140.335
X98.425Y-143.51
X98.425Y-150.495
X99.06Y-123.825
X99.695Y-118.745
X113.03Y-116.205
X113.03Y-123.19
X116.84Y-115.57
X125.095Y-115.57
T2
X92.75Y-123.825
X101.56Y-123.825
T3
X75.438Y-122.809
X75.438Y-123.063
X75.438Y-123.571
X75.438Y-123.825
X75.438Y-124.079
X75.438Y-124.333
X75.438Y-124.587
X75.438Y-124.841
X96.266Y-154.94
X98.806Y-154.94
X101.346Y-154.94
X103.886Y-154.94
X105.41Y-106.68
X106.426Y-154.94
X107.95Y-106.68
X108.966Y-154.94
X110.49Y-106.68
X111.506Y-154.94
X113.03Y-106.68
X114.046Y-154.94
X115.57Y-106.68
X118.11Y-106.68
X118.11Y-154.94
X120.65Y-154.94
X123.19Y-106.68
X123.19Y-154.94
X125.73Y-106.68
X125.73Y-154.94
X127.04Y-132.2
X127.04Y-146.7
X128.27Y-106.68
X128.27Y-154.94
X129.54Y-146.7
X130.81Y-106.68
X130.81Y-154.94
X132.04Y-132.2
X132.04Y-146.7
X133.35Y-106.68
X133.35Y-154.94
X135.89Y-106.68
X135.89Y-154.94
T4
X107.95Y-112.395
X107.95Y-128.27
X107.95Y-132.08
X110.49Y-112.395
X114.935Y-112.395
X118.11Y-128.27
X118.11Y-132.08
X118.11Y-144.78
X118.11Y-147.32
X125.095Y-112.395
T5
X93.98Y-109.22
X99.06Y-109.22
T1
X75.445Y-122.875G85X75.445Y-124.775
G05
X77.895Y-119.225G85X79.795Y-119.225
G05
X81.745Y-122.875G85X81.745Y-124.775
G05
T0
M30
