M48
;DRILL file {KiCad (2015-07-07 BZR 5906)-product} date Thu 20 Aug 2015 11:53:30 CEST
;FORMAT={-:-/ absolute / metric / decimal}
FMAT,2
METRIC,TZ
T1C0.800
T2C1.001
T3C1.016
T4C1.224
%
G90
G05
M71
T1
X76.2Y-138.43
X76.2Y-143.51
X76.2Y-148.59
X76.2Y-153.67
X86.995Y-136.525
X86.995Y-144.78
X86.995Y-153.67
X88.265Y-123.19
X88.265Y-132.08
X89.535Y-136.525
X89.535Y-144.78
X89.535Y-153.67
X92.075Y-136.525
X92.075Y-144.78
X92.075Y-153.67
X95.885Y-149.225
X104.14Y-118.745
X104.14Y-129.54
X109.22Y-149.225
X125.77Y-134.74
X125.77Y-149.24
X128.27Y-149.24
X130.77Y-134.74
X130.77Y-149.24
T2
X102.87Y-134.62
X102.87Y-139.7
X109.22Y-118.745
X111.76Y-118.745
X113.03Y-134.62
X113.03Y-139.7
X116.205Y-118.745
X116.84Y-149.225
X116.84Y-151.765
X126.365Y-118.745
T3
X94.996Y-160.02
X97.536Y-160.02
X100.076Y-160.02
X102.616Y-160.02
X104.14Y-111.76
X105.156Y-160.02
X106.68Y-111.76
X107.696Y-160.02
X109.22Y-111.76
X110.236Y-160.02
X111.76Y-111.76
X112.776Y-160.02
X114.3Y-111.76
X116.84Y-111.76
X116.84Y-160.02
X119.38Y-160.02
X121.92Y-111.76
X121.92Y-160.02
X124.46Y-111.76
X124.46Y-160.02
X127.Y-111.76
X127.Y-160.02
X129.54Y-111.76
X129.54Y-160.02
X132.08Y-111.76
X132.08Y-160.02
X134.62Y-111.76
X134.62Y-160.02
T4
X92.71Y-114.3
X97.79Y-114.3
T1
X75.445Y-127.32G85X75.445Y-129.22
G05
X77.895Y-123.67G85X79.795Y-123.67
G05
X81.745Y-127.27G85X81.745Y-129.27
G05
T0
M30
