G04 #@! TF.FileFunction,Copper,L1,Top,Signal*
%FSLAX46Y46*%
G04 Gerber Fmt 4.6, Leading zero omitted, Abs format (unit mm)*
G04 Created by KiCad (PCBNEW (2015-07-07 BZR 5906)-product) date Tue 25 Aug 2015 13:54:52 CEST*
%MOMM*%
G01*
G04 APERTURE LIST*
%ADD10C,0.100000*%
%ADD11R,2.500000X3.700000*%
%ADD12R,3.700000X2.500000*%
%ADD13C,1.900000*%
%ADD14C,2.500000*%
%ADD15C,3.000000*%
%ADD16R,3.000000X3.000000*%
%ADD17C,1.998980*%
%ADD18R,2.540000X2.540000*%
%ADD19C,2.540000*%
%ADD20R,1.900000X2.000000*%
%ADD21R,2.000000X1.900000*%
%ADD22O,1.524000X2.540000*%
%ADD23C,1.524000*%
%ADD24C,0.762000*%
%ADD25C,1.016000*%
%ADD26C,0.254000*%
G04 APERTURE END LIST*
D10*
D11*
X75445000Y-128270000D03*
D12*
X78845000Y-123670000D03*
D11*
X81745000Y-128270000D03*
D13*
X130770000Y-149240000D03*
X128270000Y-149240000D03*
X125770000Y-149240000D03*
X130770000Y-134740000D03*
X125770000Y-134740000D03*
D14*
X134870000Y-142240000D03*
X122070000Y-142240000D03*
D15*
X76200000Y-143510000D03*
X76200000Y-148590000D03*
D16*
X76200000Y-138430000D03*
D15*
X76200000Y-153670000D03*
D13*
X92075000Y-136525000D03*
X89535000Y-136525000D03*
X86995000Y-136525000D03*
D17*
X113030000Y-134620000D03*
X102870000Y-134620000D03*
D18*
X92710000Y-114300000D03*
D19*
X97790000Y-114300000D03*
D13*
X92075000Y-144780000D03*
X89535000Y-144780000D03*
X86995000Y-144780000D03*
X92075000Y-153670000D03*
X89535000Y-153670000D03*
X86995000Y-153670000D03*
X95885000Y-149225000D03*
X109220000Y-149225000D03*
X88265000Y-123190000D03*
X104140000Y-129540000D03*
X104140000Y-118745000D03*
X88265000Y-132080000D03*
D20*
X111760000Y-118745000D03*
D13*
X109220000Y-118745000D03*
D17*
X116205000Y-118745000D03*
X126365000Y-118745000D03*
D21*
X116840000Y-149225000D03*
D13*
X116840000Y-151765000D03*
D17*
X113030000Y-139700000D03*
X102870000Y-139700000D03*
D22*
X134620000Y-111760000D03*
X132080000Y-111760000D03*
X129540000Y-111760000D03*
X121920000Y-111760000D03*
X124460000Y-111760000D03*
X127000000Y-111760000D03*
X116840000Y-111760000D03*
X114300000Y-111760000D03*
X111760000Y-111760000D03*
X106680000Y-111760000D03*
X104140000Y-111760000D03*
X134620000Y-160020000D03*
X132080000Y-160020000D03*
X129540000Y-160020000D03*
X127000000Y-160020000D03*
X124460000Y-160020000D03*
X121920000Y-160020000D03*
X119380000Y-160020000D03*
X116840000Y-160020000D03*
X112776000Y-160020000D03*
X110236000Y-160020000D03*
X107696000Y-160020000D03*
X105156000Y-160020000D03*
X102616000Y-160020000D03*
X100076000Y-160020000D03*
X97536000Y-160020000D03*
X94996000Y-160020000D03*
X109220000Y-111760000D03*
D23*
X116840000Y-111760000D02*
X116840000Y-114300000D01*
X99695000Y-123825000D02*
X97790000Y-121920000D01*
X119380000Y-123825000D02*
X99695000Y-123825000D01*
X121285000Y-121920000D02*
X119380000Y-123825000D01*
X121285000Y-116840000D02*
X121285000Y-121920000D01*
X120015000Y-115570000D02*
X121285000Y-116840000D01*
X118110000Y-115570000D02*
X120015000Y-115570000D01*
X116840000Y-114300000D02*
X118110000Y-115570000D01*
X81745000Y-128270000D02*
X91440000Y-128270000D01*
X97790000Y-121920000D02*
X97790000Y-114300000D01*
X91440000Y-128270000D02*
X97790000Y-121920000D01*
X76200000Y-138430000D02*
X78740000Y-138430000D01*
X81745000Y-135425000D02*
X81745000Y-128270000D01*
X78740000Y-138430000D02*
X81745000Y-135425000D01*
D24*
X127000000Y-160020000D02*
X127000000Y-153670000D01*
X125730000Y-152400000D02*
X125730000Y-149280000D01*
X127000000Y-153670000D02*
X125730000Y-152400000D01*
X125730000Y-149280000D02*
X125770000Y-149240000D01*
X129540000Y-160020000D02*
X129540000Y-153670000D01*
X130770000Y-152440000D02*
X130770000Y-149240000D01*
X129540000Y-153670000D02*
X130770000Y-152440000D01*
X104140000Y-118745000D02*
X109220000Y-118745000D01*
X104140000Y-129540000D02*
X128270000Y-129540000D01*
X130770000Y-132040000D02*
X130770000Y-134740000D01*
X128270000Y-129540000D02*
X130770000Y-132040000D01*
X109220000Y-111760000D02*
X109220000Y-118745000D01*
D25*
X89535000Y-136525000D02*
X89535000Y-139065000D01*
X80645000Y-143510000D02*
X76200000Y-143510000D01*
X83820000Y-140335000D02*
X80645000Y-143510000D01*
X88265000Y-140335000D02*
X83820000Y-140335000D01*
X89535000Y-139065000D02*
X88265000Y-140335000D01*
X89535000Y-144780000D02*
X89535000Y-146685000D01*
X87630000Y-148590000D02*
X76200000Y-148590000D01*
X89535000Y-146685000D02*
X87630000Y-148590000D01*
X76200000Y-153670000D02*
X80010000Y-153670000D01*
X89535000Y-156210000D02*
X89535000Y-153670000D01*
X88265000Y-157480000D02*
X89535000Y-156210000D01*
X83820000Y-157480000D02*
X88265000Y-157480000D01*
X80010000Y-153670000D02*
X83820000Y-157480000D01*
D24*
X121920000Y-160020000D02*
X121920000Y-148590000D01*
X125770000Y-144740000D02*
X125770000Y-134740000D01*
X121920000Y-148590000D02*
X125770000Y-144740000D01*
X125770000Y-134740000D02*
X113150000Y-134740000D01*
X113150000Y-134740000D02*
X113030000Y-134620000D01*
X92075000Y-136525000D02*
X92075000Y-139700000D01*
X110236000Y-155956000D02*
X110236000Y-160020000D01*
X95250000Y-140970000D02*
X110236000Y-155956000D01*
X93345000Y-140970000D02*
X95250000Y-140970000D01*
X92075000Y-139700000D02*
X93345000Y-140970000D01*
X92075000Y-153670000D02*
X101600000Y-153670000D01*
X105156000Y-157226000D02*
X105156000Y-160020000D01*
X101600000Y-153670000D02*
X105156000Y-157226000D01*
X107696000Y-160020000D02*
X107696000Y-155956000D01*
X96520000Y-144780000D02*
X92075000Y-144780000D01*
X107696000Y-155956000D02*
X96520000Y-144780000D01*
D25*
X111760000Y-118745000D02*
X116205000Y-118745000D01*
D24*
X113030000Y-139700000D02*
X115570000Y-139700000D01*
X116840000Y-140970000D02*
X116840000Y-149225000D01*
X115570000Y-139700000D02*
X116840000Y-140970000D01*
X116840000Y-160020000D02*
X116840000Y-151765000D01*
D26*
G36*
X137033000Y-111759994D02*
X137032999Y-111760000D01*
X137042667Y-111808601D01*
X137070197Y-111849803D01*
X139573000Y-114352605D01*
X139573000Y-147267394D01*
X137070197Y-149770197D01*
X137042667Y-149811399D01*
X137032999Y-149860000D01*
X137033000Y-149860005D01*
X137033000Y-161237394D01*
X135837394Y-162433000D01*
X71247000Y-162433000D01*
X71247000Y-159472191D01*
X93472000Y-159472191D01*
X93472000Y-160567809D01*
X93588008Y-161151019D01*
X93918369Y-161645440D01*
X94412790Y-161975801D01*
X94996000Y-162091809D01*
X95579210Y-161975801D01*
X96073631Y-161645440D01*
X96161838Y-161513429D01*
X96342020Y-161771566D01*
X97005618Y-162131563D01*
X97263000Y-161959450D01*
X97263000Y-160293000D01*
X97243000Y-160293000D01*
X97243000Y-159747000D01*
X97263000Y-159747000D01*
X97263000Y-158080550D01*
X97005618Y-157908437D01*
X96342020Y-158268434D01*
X96161838Y-158526571D01*
X96073631Y-158394560D01*
X95579210Y-158064199D01*
X94996000Y-157948191D01*
X94412790Y-158064199D01*
X93918369Y-158394560D01*
X93588008Y-158888981D01*
X93472000Y-159472191D01*
X71247000Y-159472191D01*
X71247000Y-143957966D01*
X73937608Y-143957966D01*
X74281252Y-144789646D01*
X74917007Y-145426512D01*
X75748086Y-145771606D01*
X76647966Y-145772392D01*
X77479646Y-145428748D01*
X78116512Y-144792993D01*
X78121907Y-144780000D01*
X80644995Y-144780000D01*
X80645000Y-144780001D01*
X81131008Y-144683327D01*
X81250831Y-144603264D01*
X85089405Y-144603264D01*
X85166826Y-145345957D01*
X85302094Y-145672522D01*
X85628360Y-145760560D01*
X86608920Y-144780000D01*
X85628360Y-143799440D01*
X85302094Y-143887478D01*
X85089405Y-144603264D01*
X81250831Y-144603264D01*
X81543026Y-144408026D01*
X82537692Y-143413360D01*
X86014440Y-143413360D01*
X86995000Y-144393920D01*
X87975560Y-143413360D01*
X87887522Y-143087094D01*
X87171736Y-142874405D01*
X86429043Y-142951826D01*
X86102478Y-143087094D01*
X86014440Y-143413360D01*
X82537692Y-143413360D01*
X84346052Y-141605000D01*
X88264995Y-141605000D01*
X88265000Y-141605001D01*
X88751008Y-141508327D01*
X89163026Y-141233026D01*
X90433023Y-139963028D01*
X90433026Y-139963026D01*
X90708327Y-139551008D01*
X90805000Y-139065000D01*
X90805000Y-137676238D01*
X90805104Y-137676134D01*
X90932000Y-137803252D01*
X90932000Y-139700000D01*
X91019006Y-140137407D01*
X91266777Y-140508223D01*
X92536777Y-141778223D01*
X92907593Y-142025994D01*
X93345000Y-142113000D01*
X94776554Y-142113000D01*
X96300554Y-143637000D01*
X93353016Y-143637000D01*
X93046036Y-143329483D01*
X92417032Y-143068298D01*
X91735956Y-143067704D01*
X91106497Y-143327791D01*
X90804896Y-143628866D01*
X90506036Y-143329483D01*
X89877032Y-143068298D01*
X89195956Y-143067704D01*
X88566497Y-143327791D01*
X88084483Y-143808964D01*
X87894439Y-144266641D01*
X87381080Y-144780000D01*
X87395223Y-144794143D01*
X87009143Y-145180223D01*
X86995000Y-145166080D01*
X86014440Y-146146640D01*
X86102478Y-146472906D01*
X86818264Y-146685595D01*
X87560957Y-146608174D01*
X87887522Y-146472906D01*
X87975559Y-146146642D01*
X88126433Y-146297516D01*
X87103948Y-147320000D01*
X78122734Y-147320000D01*
X78118748Y-147310354D01*
X77482993Y-146673488D01*
X76651914Y-146328394D01*
X75752034Y-146327608D01*
X74920354Y-146671252D01*
X74283488Y-147307007D01*
X73938394Y-148138086D01*
X73937608Y-149037966D01*
X74281252Y-149869646D01*
X74917007Y-150506512D01*
X75748086Y-150851606D01*
X76647966Y-150852392D01*
X77279032Y-150591640D01*
X94904440Y-150591640D01*
X94992478Y-150917906D01*
X95708264Y-151130595D01*
X96450957Y-151053174D01*
X96777522Y-150917906D01*
X96865560Y-150591640D01*
X95885000Y-149611080D01*
X94904440Y-150591640D01*
X77279032Y-150591640D01*
X77479646Y-150508748D01*
X78116512Y-149872993D01*
X78121907Y-149860000D01*
X87629995Y-149860000D01*
X87630000Y-149860001D01*
X88116008Y-149763327D01*
X88528026Y-149488026D01*
X88967787Y-149048264D01*
X93979405Y-149048264D01*
X94056826Y-149790957D01*
X94192094Y-150117522D01*
X94518360Y-150205560D01*
X95498920Y-149225000D01*
X96271080Y-149225000D01*
X97251640Y-150205560D01*
X97577906Y-150117522D01*
X97790595Y-149401736D01*
X97713174Y-148659043D01*
X97577906Y-148332478D01*
X97251640Y-148244440D01*
X96271080Y-149225000D01*
X95498920Y-149225000D01*
X95498920Y-149225000D01*
X94518360Y-148244440D01*
X94192094Y-148332478D01*
X93979405Y-149048264D01*
X88967787Y-149048264D01*
X90157691Y-147858360D01*
X94904440Y-147858360D01*
X95885000Y-148838920D01*
X96865560Y-147858360D01*
X96777522Y-147532094D01*
X96061736Y-147319405D01*
X95319043Y-147396826D01*
X94992478Y-147532094D01*
X94904440Y-147858360D01*
X90157691Y-147858360D01*
X90433023Y-147583028D01*
X90433026Y-147583026D01*
X90708327Y-147171008D01*
X90805001Y-146685000D01*
X90805000Y-146684995D01*
X90805000Y-145931238D01*
X90805104Y-145931134D01*
X91103964Y-146230517D01*
X91732968Y-146491702D01*
X92414044Y-146492296D01*
X93043503Y-146232209D01*
X93353252Y-145923000D01*
X96046554Y-145923000D01*
X106553000Y-156429446D01*
X106553000Y-158492392D01*
X106426000Y-158682461D01*
X106299000Y-158492392D01*
X106299000Y-157226000D01*
X106211994Y-156788593D01*
X105964223Y-156417777D01*
X102408223Y-152861777D01*
X102037407Y-152614006D01*
X101600000Y-152527000D01*
X93353016Y-152527000D01*
X93046036Y-152219483D01*
X92417032Y-151958298D01*
X91735956Y-151957704D01*
X91106497Y-152217791D01*
X90804896Y-152518866D01*
X90506036Y-152219483D01*
X89877032Y-151958298D01*
X89195956Y-151957704D01*
X88566497Y-152217791D01*
X88084483Y-152698964D01*
X87894439Y-153156641D01*
X87381080Y-153670000D01*
X87395223Y-153684143D01*
X87009143Y-154070223D01*
X86995000Y-154056080D01*
X86014440Y-155036640D01*
X86102478Y-155362906D01*
X86818264Y-155575595D01*
X87560957Y-155498174D01*
X87887522Y-155362906D01*
X87975559Y-155036642D01*
X88153441Y-155214524D01*
X88265000Y-155102965D01*
X88265000Y-155683949D01*
X87738948Y-156210000D01*
X84346051Y-156210000D01*
X81629316Y-153493264D01*
X85089405Y-153493264D01*
X85166826Y-154235957D01*
X85302094Y-154562522D01*
X85628360Y-154650560D01*
X86608920Y-153670000D01*
X85628360Y-152689440D01*
X85302094Y-152777478D01*
X85089405Y-153493264D01*
X81629316Y-153493264D01*
X80908026Y-152771974D01*
X80496008Y-152496673D01*
X80010000Y-152399999D01*
X80009995Y-152400000D01*
X78122734Y-152400000D01*
X78118748Y-152390354D01*
X78031906Y-152303360D01*
X86014440Y-152303360D01*
X86995000Y-153283920D01*
X87975560Y-152303360D01*
X87887522Y-151977094D01*
X87171736Y-151764405D01*
X86429043Y-151841826D01*
X86102478Y-151977094D01*
X86014440Y-152303360D01*
X78031906Y-152303360D01*
X77482993Y-151753488D01*
X76651914Y-151408394D01*
X75752034Y-151407608D01*
X74920354Y-151751252D01*
X74283488Y-152387007D01*
X73938394Y-153218086D01*
X73937608Y-154117966D01*
X74281252Y-154949646D01*
X74917007Y-155586512D01*
X75748086Y-155931606D01*
X76647966Y-155932392D01*
X77479646Y-155588748D01*
X78116512Y-154952993D01*
X78121907Y-154940000D01*
X79483948Y-154940000D01*
X82921972Y-158378023D01*
X82921974Y-158378026D01*
X83333992Y-158653327D01*
X83820000Y-158750001D01*
X83820005Y-158750000D01*
X88264995Y-158750000D01*
X88265000Y-158750001D01*
X88751008Y-158653327D01*
X89163026Y-158378026D01*
X90433023Y-157108028D01*
X90433026Y-157108026D01*
X90708327Y-156696008D01*
X90805000Y-156210000D01*
X90805000Y-154821238D01*
X90805104Y-154821134D01*
X91103964Y-155120517D01*
X91732968Y-155381702D01*
X92414044Y-155382296D01*
X93043503Y-155122209D01*
X93353252Y-154813000D01*
X101126554Y-154813000D01*
X104013000Y-157699446D01*
X104013000Y-158492392D01*
X103886000Y-158682461D01*
X103693631Y-158394560D01*
X103199210Y-158064199D01*
X102616000Y-157948191D01*
X102032790Y-158064199D01*
X101538369Y-158394560D01*
X101346000Y-158682461D01*
X101153631Y-158394560D01*
X100659210Y-158064199D01*
X100076000Y-157948191D01*
X99492790Y-158064199D01*
X98998369Y-158394560D01*
X98910162Y-158526571D01*
X98729980Y-158268434D01*
X98066382Y-157908437D01*
X97809000Y-158080550D01*
X97809000Y-159747000D01*
X97829000Y-159747000D01*
X97829000Y-160293000D01*
X97809000Y-160293000D01*
X97809000Y-161959450D01*
X98066382Y-162131563D01*
X98729980Y-161771566D01*
X98910162Y-161513429D01*
X98998369Y-161645440D01*
X99492790Y-161975801D01*
X100076000Y-162091809D01*
X100659210Y-161975801D01*
X101153631Y-161645440D01*
X101346000Y-161357539D01*
X101538369Y-161645440D01*
X102032790Y-161975801D01*
X102616000Y-162091809D01*
X103199210Y-161975801D01*
X103693631Y-161645440D01*
X103886000Y-161357539D01*
X104078369Y-161645440D01*
X104572790Y-161975801D01*
X105156000Y-162091809D01*
X105739210Y-161975801D01*
X106233631Y-161645440D01*
X106426000Y-161357539D01*
X106618369Y-161645440D01*
X107112790Y-161975801D01*
X107696000Y-162091809D01*
X108279210Y-161975801D01*
X108773631Y-161645440D01*
X108966000Y-161357539D01*
X109158369Y-161645440D01*
X109652790Y-161975801D01*
X110236000Y-162091809D01*
X110819210Y-161975801D01*
X111313631Y-161645440D01*
X111506000Y-161357539D01*
X111698369Y-161645440D01*
X112192790Y-161975801D01*
X112776000Y-162091809D01*
X113359210Y-161975801D01*
X113853631Y-161645440D01*
X114183992Y-161151019D01*
X114300000Y-160567809D01*
X114300000Y-159472191D01*
X114183992Y-158888981D01*
X113853631Y-158394560D01*
X113359210Y-158064199D01*
X112776000Y-157948191D01*
X112192790Y-158064199D01*
X111698369Y-158394560D01*
X111506000Y-158682461D01*
X111379000Y-158492392D01*
X111379000Y-155956000D01*
X111291994Y-155518593D01*
X111044223Y-155147777D01*
X106488086Y-150591640D01*
X108239440Y-150591640D01*
X108327478Y-150917906D01*
X109043264Y-151130595D01*
X109785957Y-151053174D01*
X110112522Y-150917906D01*
X110200560Y-150591640D01*
X109220000Y-149611080D01*
X108239440Y-150591640D01*
X106488086Y-150591640D01*
X104944710Y-149048264D01*
X107314405Y-149048264D01*
X107391826Y-149790957D01*
X107527094Y-150117522D01*
X107853360Y-150205560D01*
X108833920Y-149225000D01*
X109606080Y-149225000D01*
X110586640Y-150205560D01*
X110912906Y-150117522D01*
X111125595Y-149401736D01*
X111048174Y-148659043D01*
X110912906Y-148332478D01*
X110586640Y-148244440D01*
X109606080Y-149225000D01*
X108833920Y-149225000D01*
X108833920Y-149225000D01*
X107853360Y-148244440D01*
X107527094Y-148332478D01*
X107314405Y-149048264D01*
X104944710Y-149048264D01*
X103754806Y-147858360D01*
X108239440Y-147858360D01*
X109220000Y-148838920D01*
X110200560Y-147858360D01*
X110112522Y-147532094D01*
X109396736Y-147319405D01*
X108654043Y-147396826D01*
X108327478Y-147532094D01*
X108239440Y-147858360D01*
X103754806Y-147858360D01*
X96999231Y-141102785D01*
X101853296Y-141102785D01*
X101947521Y-141434139D01*
X102681367Y-141655153D01*
X103443930Y-141578513D01*
X103792479Y-141434139D01*
X103886704Y-141102785D01*
X102870000Y-140086080D01*
X101853296Y-141102785D01*
X96999231Y-141102785D01*
X96058223Y-140161777D01*
X95687407Y-139914006D01*
X95250000Y-139827000D01*
X93818446Y-139827000D01*
X93502813Y-139511367D01*
X100914847Y-139511367D01*
X100991487Y-140273930D01*
X101135861Y-140622479D01*
X101467215Y-140716704D01*
X102483920Y-139700000D01*
X103256080Y-139700000D01*
X104272785Y-140716704D01*
X104604139Y-140622479D01*
X104825153Y-139888633D01*
X104748513Y-139126070D01*
X104604139Y-138777521D01*
X104272785Y-138683296D01*
X103256080Y-139700000D01*
X102483920Y-139700000D01*
X102483920Y-139700000D01*
X101467215Y-138683296D01*
X101135861Y-138777521D01*
X100914847Y-139511367D01*
X93502813Y-139511367D01*
X93218000Y-139226554D01*
X93218000Y-138297215D01*
X101853296Y-138297215D01*
X102870000Y-139313920D01*
X103886704Y-138297215D01*
X103792479Y-137965861D01*
X103058633Y-137744847D01*
X102296070Y-137821487D01*
X101947521Y-137965861D01*
X101853296Y-138297215D01*
X93218000Y-138297215D01*
X93218000Y-137803016D01*
X93525517Y-137496036D01*
X93786702Y-136867032D01*
X93787296Y-136185956D01*
X93719876Y-136022785D01*
X101853296Y-136022785D01*
X101947521Y-136354139D01*
X102681367Y-136575153D01*
X103443930Y-136498513D01*
X103792479Y-136354139D01*
X103886704Y-136022785D01*
X102870000Y-135006080D01*
X101853296Y-136022785D01*
X93719876Y-136022785D01*
X93527209Y-135556497D01*
X93046036Y-135074483D01*
X92417032Y-134813298D01*
X91735956Y-134812704D01*
X91106497Y-135072791D01*
X90804896Y-135373866D01*
X90506036Y-135074483D01*
X89877032Y-134813298D01*
X89195956Y-134812704D01*
X88566497Y-135072791D01*
X88084483Y-135553964D01*
X87894439Y-136011641D01*
X87381080Y-136525000D01*
X87395223Y-136539143D01*
X87009143Y-136925223D01*
X86995000Y-136911080D01*
X86014440Y-137891640D01*
X86102478Y-138217906D01*
X86818264Y-138430595D01*
X87560957Y-138353174D01*
X87887522Y-138217906D01*
X87975559Y-137891642D01*
X88153441Y-138069524D01*
X88265000Y-137957965D01*
X88265000Y-138538949D01*
X87738948Y-139065000D01*
X83820005Y-139065000D01*
X83820000Y-139064999D01*
X83333992Y-139161673D01*
X82921974Y-139436974D01*
X80118948Y-142240000D01*
X78122734Y-142240000D01*
X78118748Y-142230354D01*
X77482993Y-141593488D01*
X76651914Y-141248394D01*
X75752034Y-141247608D01*
X74920354Y-141591252D01*
X74283488Y-142227007D01*
X73938394Y-143058086D01*
X73937608Y-143957966D01*
X71247000Y-143957966D01*
X71247000Y-136930000D01*
X73923072Y-136930000D01*
X73923072Y-139930000D01*
X73979445Y-140220548D01*
X74147192Y-140475913D01*
X74400432Y-140646852D01*
X74700000Y-140706928D01*
X77700000Y-140706928D01*
X77990548Y-140650555D01*
X78245913Y-140482808D01*
X78416852Y-140229568D01*
X78472115Y-139954000D01*
X78740000Y-139954000D01*
X79323210Y-139837992D01*
X79817631Y-139507631D01*
X82822631Y-136502631D01*
X82925775Y-136348264D01*
X85089405Y-136348264D01*
X85166826Y-137090957D01*
X85302094Y-137417522D01*
X85628360Y-137505560D01*
X86608920Y-136525000D01*
X85628360Y-135544440D01*
X85302094Y-135632478D01*
X85089405Y-136348264D01*
X82925775Y-136348264D01*
X83152993Y-136008209D01*
X83269001Y-135425000D01*
X83269000Y-135424995D01*
X83269000Y-135158360D01*
X86014440Y-135158360D01*
X86995000Y-136138920D01*
X87975560Y-135158360D01*
X87887522Y-134832094D01*
X87171736Y-134619405D01*
X86429043Y-134696826D01*
X86102478Y-134832094D01*
X86014440Y-135158360D01*
X83269000Y-135158360D01*
X83269000Y-134431367D01*
X100914847Y-134431367D01*
X100991487Y-135193930D01*
X101135861Y-135542479D01*
X101467215Y-135636704D01*
X102483920Y-134620000D01*
X103256080Y-134620000D01*
X104272785Y-135636704D01*
X104604139Y-135542479D01*
X104776901Y-134968845D01*
X111268205Y-134968845D01*
X111535810Y-135616501D01*
X112030893Y-136112448D01*
X112678081Y-136381184D01*
X113378845Y-136381795D01*
X114026501Y-136114190D01*
X114258094Y-135883000D01*
X124491984Y-135883000D01*
X124627000Y-136018252D01*
X124627000Y-144266554D01*
X121111777Y-147781777D01*
X120864006Y-148152593D01*
X120777000Y-148590000D01*
X120777000Y-158492392D01*
X120650000Y-158682461D01*
X120457631Y-158394560D01*
X119963210Y-158064199D01*
X119380000Y-157948191D01*
X118796790Y-158064199D01*
X118302369Y-158394560D01*
X118110000Y-158682461D01*
X117983000Y-158492392D01*
X117983000Y-153043016D01*
X118290517Y-152736036D01*
X118551702Y-152107032D01*
X118552296Y-151425956D01*
X118292209Y-150796497D01*
X118287907Y-150792187D01*
X118385913Y-150727808D01*
X118556852Y-150474568D01*
X118616928Y-150175000D01*
X118616928Y-148275000D01*
X118560555Y-147984452D01*
X118392808Y-147729087D01*
X118139568Y-147558148D01*
X117983000Y-147526750D01*
X117983000Y-142638456D01*
X120057652Y-142638456D01*
X120363315Y-143378217D01*
X120928806Y-143944696D01*
X121668033Y-144251650D01*
X122468456Y-144252348D01*
X123208217Y-143946685D01*
X123774696Y-143381194D01*
X124081650Y-142641967D01*
X124082348Y-141841544D01*
X123776685Y-141101783D01*
X123211194Y-140535304D01*
X122471967Y-140228350D01*
X121671544Y-140227652D01*
X120931783Y-140533315D01*
X120365304Y-141098806D01*
X120058350Y-141838033D01*
X120057652Y-142638456D01*
X117983000Y-142638456D01*
X117983000Y-140970000D01*
X117895994Y-140532593D01*
X117648223Y-140161777D01*
X116378223Y-138891777D01*
X116007407Y-138644006D01*
X115570000Y-138557000D01*
X114377946Y-138557000D01*
X114029107Y-138207552D01*
X113381919Y-137938816D01*
X112681155Y-137938205D01*
X112033499Y-138205810D01*
X111537552Y-138700893D01*
X111268816Y-139348081D01*
X111268205Y-140048845D01*
X111535810Y-140696501D01*
X112030893Y-141192448D01*
X112678081Y-141461184D01*
X113378845Y-141461795D01*
X114026501Y-141194190D01*
X114378304Y-140843000D01*
X115096554Y-140843000D01*
X115697000Y-141443446D01*
X115697000Y-147525817D01*
X115549452Y-147554445D01*
X115294087Y-147722192D01*
X115123148Y-147975432D01*
X115063072Y-148275000D01*
X115063072Y-150175000D01*
X115119445Y-150465548D01*
X115287192Y-150720913D01*
X115391876Y-150791575D01*
X115389483Y-150793964D01*
X115128298Y-151422968D01*
X115127704Y-152104044D01*
X115387791Y-152733503D01*
X115697000Y-153043252D01*
X115697000Y-158492392D01*
X115432008Y-158888981D01*
X115316000Y-159472191D01*
X115316000Y-160567809D01*
X115432008Y-161151019D01*
X115762369Y-161645440D01*
X116256790Y-161975801D01*
X116840000Y-162091809D01*
X117423210Y-161975801D01*
X117917631Y-161645440D01*
X118110000Y-161357539D01*
X118302369Y-161645440D01*
X118796790Y-161975801D01*
X119380000Y-162091809D01*
X119963210Y-161975801D01*
X120457631Y-161645440D01*
X120650000Y-161357539D01*
X120842369Y-161645440D01*
X121336790Y-161975801D01*
X121920000Y-162091809D01*
X122503210Y-161975801D01*
X122997631Y-161645440D01*
X123190000Y-161357539D01*
X123382369Y-161645440D01*
X123876790Y-161975801D01*
X124460000Y-162091809D01*
X125043210Y-161975801D01*
X125537631Y-161645440D01*
X125730000Y-161357539D01*
X125922369Y-161645440D01*
X126416790Y-161975801D01*
X127000000Y-162091809D01*
X127583210Y-161975801D01*
X128077631Y-161645440D01*
X128270000Y-161357539D01*
X128462369Y-161645440D01*
X128956790Y-161975801D01*
X129540000Y-162091809D01*
X130123210Y-161975801D01*
X130617631Y-161645440D01*
X130810000Y-161357539D01*
X131002369Y-161645440D01*
X131496790Y-161975801D01*
X132080000Y-162091809D01*
X132663210Y-161975801D01*
X133157631Y-161645440D01*
X133350000Y-161357539D01*
X133542369Y-161645440D01*
X134036790Y-161975801D01*
X134620000Y-162091809D01*
X135203210Y-161975801D01*
X135697631Y-161645440D01*
X136027992Y-161151019D01*
X136144000Y-160567809D01*
X136144000Y-159472191D01*
X136027992Y-158888981D01*
X135697631Y-158394560D01*
X135203210Y-158064199D01*
X134620000Y-157948191D01*
X134036790Y-158064199D01*
X133542369Y-158394560D01*
X133350000Y-158682461D01*
X133157631Y-158394560D01*
X132663210Y-158064199D01*
X132080000Y-157948191D01*
X131496790Y-158064199D01*
X131002369Y-158394560D01*
X130810000Y-158682461D01*
X130683000Y-158492392D01*
X130683000Y-154143446D01*
X131578223Y-153248223D01*
X131825994Y-152877407D01*
X131913000Y-152440000D01*
X131913000Y-150518016D01*
X132220517Y-150211036D01*
X132481702Y-149582032D01*
X132482296Y-148900956D01*
X132222209Y-148271497D01*
X131741036Y-147789483D01*
X131112032Y-147528298D01*
X130430956Y-147527704D01*
X129801497Y-147787791D01*
X129319483Y-148268964D01*
X129101036Y-148795044D01*
X128656080Y-149240000D01*
X129101769Y-149685689D01*
X129317791Y-150208503D01*
X129627000Y-150518252D01*
X129627000Y-151966554D01*
X128731777Y-152861777D01*
X128484006Y-153232593D01*
X128397000Y-153670000D01*
X128397000Y-158492392D01*
X128270000Y-158682461D01*
X128143000Y-158492392D01*
X128143000Y-153670000D01*
X128055994Y-153232593D01*
X127808223Y-152861777D01*
X126873000Y-151926554D01*
X126873000Y-150606640D01*
X127289440Y-150606640D01*
X127377478Y-150932906D01*
X128093264Y-151145595D01*
X128835957Y-151068174D01*
X129162522Y-150932906D01*
X129250560Y-150606640D01*
X128270000Y-149626080D01*
X127289440Y-150606640D01*
X126873000Y-150606640D01*
X126873000Y-150557947D01*
X127220517Y-150211036D01*
X127438964Y-149684956D01*
X127883920Y-149240000D01*
X127438231Y-148794311D01*
X127222209Y-148271497D01*
X126824767Y-147873360D01*
X127289440Y-147873360D01*
X128270000Y-148853920D01*
X129250560Y-147873360D01*
X129162522Y-147547094D01*
X128446736Y-147334405D01*
X127704043Y-147411826D01*
X127377478Y-147547094D01*
X127289440Y-147873360D01*
X126824767Y-147873360D01*
X126741036Y-147789483D01*
X126112032Y-147528298D01*
X125430956Y-147527704D01*
X124801497Y-147787791D01*
X124319483Y-148268964D01*
X124058298Y-148897968D01*
X124057704Y-149579044D01*
X124317791Y-150208503D01*
X124587000Y-150478183D01*
X124587000Y-152400000D01*
X124674006Y-152837407D01*
X124921777Y-153208223D01*
X125857000Y-154143446D01*
X125857000Y-158492392D01*
X125730000Y-158682461D01*
X125537631Y-158394560D01*
X125043210Y-158064199D01*
X124460000Y-157948191D01*
X123876790Y-158064199D01*
X123382369Y-158394560D01*
X123190000Y-158682461D01*
X123063000Y-158492392D01*
X123063000Y-149063446D01*
X126578223Y-145548223D01*
X126825994Y-145177407D01*
X126913000Y-144740000D01*
X126913000Y-142638456D01*
X132857652Y-142638456D01*
X133163315Y-143378217D01*
X133728806Y-143944696D01*
X134468033Y-144251650D01*
X135268456Y-144252348D01*
X136008217Y-143946685D01*
X136574696Y-143381194D01*
X136881650Y-142641967D01*
X136882348Y-141841544D01*
X136576685Y-141101783D01*
X136011194Y-140535304D01*
X135271967Y-140228350D01*
X134471544Y-140227652D01*
X133731783Y-140533315D01*
X133165304Y-141098806D01*
X132858350Y-141838033D01*
X132857652Y-142638456D01*
X126913000Y-142638456D01*
X126913000Y-136018016D01*
X127220517Y-135711036D01*
X127481702Y-135082032D01*
X127482296Y-134400956D01*
X127222209Y-133771497D01*
X126741036Y-133289483D01*
X126112032Y-133028298D01*
X125430956Y-133027704D01*
X124801497Y-133287791D01*
X124491748Y-133597000D01*
X114497737Y-133597000D01*
X114029107Y-133127552D01*
X113381919Y-132858816D01*
X112681155Y-132858205D01*
X112033499Y-133125810D01*
X111537552Y-133620893D01*
X111268816Y-134268081D01*
X111268205Y-134968845D01*
X104776901Y-134968845D01*
X104825153Y-134808633D01*
X104748513Y-134046070D01*
X104604139Y-133697521D01*
X104272785Y-133603296D01*
X103256080Y-134620000D01*
X102483920Y-134620000D01*
X102483920Y-134620000D01*
X101467215Y-133603296D01*
X101135861Y-133697521D01*
X100914847Y-134431367D01*
X83269000Y-134431367D01*
X83269000Y-133446640D01*
X87284440Y-133446640D01*
X87372478Y-133772906D01*
X88088264Y-133985595D01*
X88830957Y-133908174D01*
X89157522Y-133772906D01*
X89245560Y-133446640D01*
X89016135Y-133217215D01*
X101853296Y-133217215D01*
X102870000Y-134233920D01*
X103886704Y-133217215D01*
X103792479Y-132885861D01*
X103058633Y-132664847D01*
X102296070Y-132741487D01*
X101947521Y-132885861D01*
X101853296Y-133217215D01*
X89016135Y-133217215D01*
X88265000Y-132466080D01*
X87284440Y-133446640D01*
X83269000Y-133446640D01*
X83269000Y-131903264D01*
X86359405Y-131903264D01*
X86436826Y-132645957D01*
X86572094Y-132972522D01*
X86898360Y-133060560D01*
X87878920Y-132080000D01*
X88651080Y-132080000D01*
X89631640Y-133060560D01*
X89957906Y-132972522D01*
X90170595Y-132256736D01*
X90093174Y-131514043D01*
X89957906Y-131187478D01*
X89631640Y-131099440D01*
X88651080Y-132080000D01*
X87878920Y-132080000D01*
X87878920Y-132080000D01*
X86898360Y-131099440D01*
X86572094Y-131187478D01*
X86359405Y-131903264D01*
X83269000Y-131903264D01*
X83269000Y-130843766D01*
X83285548Y-130840555D01*
X83479179Y-130713360D01*
X87284440Y-130713360D01*
X88265000Y-131693920D01*
X89245560Y-130713360D01*
X89157522Y-130387094D01*
X88441736Y-130174405D01*
X87699043Y-130251826D01*
X87372478Y-130387094D01*
X87284440Y-130713360D01*
X83479179Y-130713360D01*
X83540913Y-130672808D01*
X83711852Y-130419568D01*
X83771928Y-130120000D01*
X83771928Y-129879044D01*
X102427704Y-129879044D01*
X102687791Y-130508503D01*
X103168964Y-130990517D01*
X103797968Y-131251702D01*
X104479044Y-131252296D01*
X105108503Y-130992209D01*
X105418252Y-130683000D01*
X127796554Y-130683000D01*
X129627000Y-132513446D01*
X129627000Y-133461984D01*
X129319483Y-133768964D01*
X129058298Y-134397968D01*
X129057704Y-135079044D01*
X129317791Y-135708503D01*
X129798964Y-136190517D01*
X130427968Y-136451702D01*
X131109044Y-136452296D01*
X131738503Y-136192209D01*
X132220517Y-135711036D01*
X132481702Y-135082032D01*
X132482296Y-134400956D01*
X132222209Y-133771497D01*
X131913000Y-133461748D01*
X131913000Y-132040000D01*
X131825994Y-131602593D01*
X131578223Y-131231777D01*
X129078223Y-128731777D01*
X128707407Y-128484006D01*
X128270000Y-128397000D01*
X105418016Y-128397000D01*
X105111036Y-128089483D01*
X104482032Y-127828298D01*
X103800956Y-127827704D01*
X103171497Y-128087791D01*
X102689483Y-128568964D01*
X102428298Y-129197968D01*
X102427704Y-129879044D01*
X83771928Y-129879044D01*
X83771928Y-129794000D01*
X91440000Y-129794000D01*
X92023210Y-129677992D01*
X92517631Y-129347631D01*
X97790000Y-124075262D01*
X98617369Y-124902631D01*
X99111791Y-125232993D01*
X99695000Y-125349000D01*
X119380000Y-125349000D01*
X119963210Y-125232992D01*
X120457631Y-124902631D01*
X122362631Y-122997631D01*
X122692993Y-122503209D01*
X122809000Y-121920000D01*
X122809000Y-120147785D01*
X125348296Y-120147785D01*
X125442521Y-120479139D01*
X126176367Y-120700153D01*
X126938930Y-120623513D01*
X127287479Y-120479139D01*
X127381704Y-120147785D01*
X126365000Y-119131080D01*
X125348296Y-120147785D01*
X122809000Y-120147785D01*
X122809000Y-118556367D01*
X124409847Y-118556367D01*
X124486487Y-119318930D01*
X124630861Y-119667479D01*
X124962215Y-119761704D01*
X125978920Y-118745000D01*
X126751080Y-118745000D01*
X127767785Y-119761704D01*
X128099139Y-119667479D01*
X128320153Y-118933633D01*
X128243513Y-118171070D01*
X128099139Y-117822521D01*
X127767785Y-117728296D01*
X126751080Y-118745000D01*
X125978920Y-118745000D01*
X125978920Y-118745000D01*
X124962215Y-117728296D01*
X124630861Y-117822521D01*
X124409847Y-118556367D01*
X122809000Y-118556367D01*
X122809000Y-117342215D01*
X125348296Y-117342215D01*
X126365000Y-118358920D01*
X127381704Y-117342215D01*
X127287479Y-117010861D01*
X126553633Y-116789847D01*
X125791070Y-116866487D01*
X125442521Y-117010861D01*
X125348296Y-117342215D01*
X122809000Y-117342215D01*
X122809000Y-116840000D01*
X122692992Y-116256790D01*
X122362631Y-115762369D01*
X121092631Y-114492369D01*
X120883459Y-114352605D01*
X120598210Y-114162008D01*
X120015000Y-114046000D01*
X118741262Y-114046000D01*
X118364000Y-113668738D01*
X118364000Y-111212191D01*
X120396000Y-111212191D01*
X120396000Y-112307809D01*
X120512008Y-112891019D01*
X120842369Y-113385440D01*
X121336790Y-113715801D01*
X121920000Y-113831809D01*
X122503210Y-113715801D01*
X122997631Y-113385440D01*
X123190000Y-113097539D01*
X123382369Y-113385440D01*
X123876790Y-113715801D01*
X124460000Y-113831809D01*
X125043210Y-113715801D01*
X125537631Y-113385440D01*
X125730000Y-113097539D01*
X125922369Y-113385440D01*
X126416790Y-113715801D01*
X127000000Y-113831809D01*
X127583210Y-113715801D01*
X128077631Y-113385440D01*
X128270000Y-113097539D01*
X128462369Y-113385440D01*
X128956790Y-113715801D01*
X129540000Y-113831809D01*
X130123210Y-113715801D01*
X130617631Y-113385440D01*
X130810000Y-113097539D01*
X131002369Y-113385440D01*
X131496790Y-113715801D01*
X132080000Y-113831809D01*
X132663210Y-113715801D01*
X133157631Y-113385440D01*
X133350000Y-113097539D01*
X133542369Y-113385440D01*
X134036790Y-113715801D01*
X134620000Y-113831809D01*
X135203210Y-113715801D01*
X135697631Y-113385440D01*
X136027992Y-112891019D01*
X136144000Y-112307809D01*
X136144000Y-111212191D01*
X136027992Y-110628981D01*
X135697631Y-110134560D01*
X135203210Y-109804199D01*
X134620000Y-109688191D01*
X134036790Y-109804199D01*
X133542369Y-110134560D01*
X133350000Y-110422461D01*
X133157631Y-110134560D01*
X132663210Y-109804199D01*
X132080000Y-109688191D01*
X131496790Y-109804199D01*
X131002369Y-110134560D01*
X130810000Y-110422461D01*
X130617631Y-110134560D01*
X130123210Y-109804199D01*
X129540000Y-109688191D01*
X128956790Y-109804199D01*
X128462369Y-110134560D01*
X128270000Y-110422461D01*
X128077631Y-110134560D01*
X127583210Y-109804199D01*
X127000000Y-109688191D01*
X126416790Y-109804199D01*
X125922369Y-110134560D01*
X125730000Y-110422461D01*
X125537631Y-110134560D01*
X125043210Y-109804199D01*
X124460000Y-109688191D01*
X123876790Y-109804199D01*
X123382369Y-110134560D01*
X123190000Y-110422461D01*
X122997631Y-110134560D01*
X122503210Y-109804199D01*
X121920000Y-109688191D01*
X121336790Y-109804199D01*
X120842369Y-110134560D01*
X120512008Y-110628981D01*
X120396000Y-111212191D01*
X118364000Y-111212191D01*
X118364000Y-111212191D01*
X118247992Y-110628981D01*
X117917631Y-110134560D01*
X117423210Y-109804199D01*
X116840000Y-109688191D01*
X116256790Y-109804199D01*
X115762369Y-110134560D01*
X115674162Y-110266571D01*
X115493980Y-110008434D01*
X114830382Y-109648437D01*
X114573000Y-109820550D01*
X114573000Y-111487000D01*
X114593000Y-111487000D01*
X114593000Y-112033000D01*
X114573000Y-112033000D01*
X114573000Y-113699450D01*
X114830382Y-113871563D01*
X115316000Y-113608119D01*
X115316000Y-114300000D01*
X115432008Y-114883210D01*
X115721189Y-115316000D01*
X115762369Y-115377631D01*
X117032369Y-116647631D01*
X117526790Y-116977992D01*
X118110000Y-117094000D01*
X119383738Y-117094000D01*
X119761000Y-117471262D01*
X119761000Y-121288738D01*
X118748738Y-122301000D01*
X100326262Y-122301000D01*
X99314000Y-121288738D01*
X99314000Y-119084044D01*
X102427704Y-119084044D01*
X102687791Y-119713503D01*
X103168964Y-120195517D01*
X103797968Y-120456702D01*
X104479044Y-120457296D01*
X105108503Y-120197209D01*
X105418252Y-119888000D01*
X107941984Y-119888000D01*
X108248964Y-120195517D01*
X108877968Y-120456702D01*
X109559044Y-120457296D01*
X110188503Y-120197209D01*
X110192813Y-120192907D01*
X110257192Y-120290913D01*
X110510432Y-120461852D01*
X110810000Y-120521928D01*
X112710000Y-120521928D01*
X113000548Y-120465555D01*
X113255913Y-120297808D01*
X113426852Y-120044568D01*
X113432782Y-120015000D01*
X114983833Y-120015000D01*
X115205893Y-120237448D01*
X115853081Y-120506184D01*
X116553845Y-120506795D01*
X117201501Y-120239190D01*
X117697448Y-119744107D01*
X117966184Y-119096919D01*
X117966795Y-118396155D01*
X117699190Y-117748499D01*
X117204107Y-117252552D01*
X116556919Y-116983816D01*
X115856155Y-116983205D01*
X115208499Y-117250810D01*
X114983918Y-117475000D01*
X113434542Y-117475000D01*
X113430555Y-117454452D01*
X113262808Y-117199087D01*
X113009568Y-117028148D01*
X112710000Y-116968072D01*
X110810000Y-116968072D01*
X110519452Y-117024445D01*
X110363000Y-117127217D01*
X110363000Y-113287608D01*
X110385838Y-113253429D01*
X110566020Y-113511566D01*
X111229618Y-113871563D01*
X111487000Y-113699450D01*
X111487000Y-112033000D01*
X112033000Y-112033000D01*
X112033000Y-113699450D01*
X112290382Y-113871563D01*
X112953980Y-113511566D01*
X113030000Y-113402656D01*
X113106020Y-113511566D01*
X113769618Y-113871563D01*
X114027000Y-113699450D01*
X114027000Y-112033000D01*
X112033000Y-112033000D01*
X111487000Y-112033000D01*
X111487000Y-112033000D01*
X111467000Y-112033000D01*
X111467000Y-111487000D01*
X111487000Y-111487000D01*
X111487000Y-109820550D01*
X112033000Y-109820550D01*
X112033000Y-111487000D01*
X114027000Y-111487000D01*
X114027000Y-109820550D01*
X113769618Y-109648437D01*
X113106020Y-110008434D01*
X113030000Y-110117344D01*
X112953980Y-110008434D01*
X112290382Y-109648437D01*
X112033000Y-109820550D01*
X111487000Y-109820550D01*
X111487000Y-109820550D01*
X111229618Y-109648437D01*
X110566020Y-110008434D01*
X110385838Y-110266571D01*
X110297631Y-110134560D01*
X109803210Y-109804199D01*
X109220000Y-109688191D01*
X108636790Y-109804199D01*
X108142369Y-110134560D01*
X107950000Y-110422461D01*
X107757631Y-110134560D01*
X107263210Y-109804199D01*
X106680000Y-109688191D01*
X106096790Y-109804199D01*
X105602369Y-110134560D01*
X105410000Y-110422461D01*
X105217631Y-110134560D01*
X104723210Y-109804199D01*
X104140000Y-109688191D01*
X103556790Y-109804199D01*
X103062369Y-110134560D01*
X102732008Y-110628981D01*
X102616000Y-111212191D01*
X102616000Y-112307809D01*
X102732008Y-112891019D01*
X103062369Y-113385440D01*
X103556790Y-113715801D01*
X104140000Y-113831809D01*
X104723210Y-113715801D01*
X105217631Y-113385440D01*
X105410000Y-113097539D01*
X105602369Y-113385440D01*
X106096790Y-113715801D01*
X106680000Y-113831809D01*
X107263210Y-113715801D01*
X107757631Y-113385440D01*
X107950000Y-113097539D01*
X108077000Y-113287608D01*
X108077000Y-117466984D01*
X107941748Y-117602000D01*
X105418016Y-117602000D01*
X105111036Y-117294483D01*
X104482032Y-117033298D01*
X103800956Y-117032704D01*
X103171497Y-117292791D01*
X102689483Y-117773964D01*
X102428298Y-118402968D01*
X102427704Y-119084044D01*
X99314000Y-119084044D01*
X99314000Y-115649835D01*
X99511641Y-115452538D01*
X99821646Y-114705963D01*
X99822352Y-113897584D01*
X99513650Y-113150468D01*
X98942538Y-112578359D01*
X98195963Y-112268354D01*
X97387584Y-112267648D01*
X96640468Y-112576350D01*
X96068359Y-113147462D01*
X95758354Y-113894037D01*
X95757648Y-114702416D01*
X96066350Y-115449532D01*
X96266000Y-115649531D01*
X96266000Y-121288738D01*
X90808738Y-126746000D01*
X83771928Y-126746000D01*
X83771928Y-126420000D01*
X83715555Y-126129452D01*
X83547808Y-125874087D01*
X83294568Y-125703148D01*
X82995000Y-125643072D01*
X81282905Y-125643072D01*
X81480873Y-125445103D01*
X81622000Y-125104392D01*
X81622000Y-124556640D01*
X87284440Y-124556640D01*
X87372478Y-124882906D01*
X88088264Y-125095595D01*
X88830957Y-125018174D01*
X89157522Y-124882906D01*
X89245560Y-124556640D01*
X88265000Y-123576080D01*
X87284440Y-124556640D01*
X81622000Y-124556640D01*
X81622000Y-124174750D01*
X81390250Y-123943000D01*
X79118000Y-123943000D01*
X79118000Y-125615250D01*
X79349750Y-125847000D01*
X79979826Y-125847000D01*
X79949087Y-125867192D01*
X79778148Y-126120432D01*
X79718072Y-126420000D01*
X79718072Y-130120000D01*
X79774445Y-130410548D01*
X79942192Y-130665913D01*
X80195432Y-130836852D01*
X80221000Y-130841979D01*
X80221000Y-134793738D01*
X78402608Y-136612130D01*
X78252808Y-136384087D01*
X77999568Y-136213148D01*
X77700000Y-136153072D01*
X74700000Y-136153072D01*
X74409452Y-136209445D01*
X74154087Y-136377192D01*
X73983148Y-136630432D01*
X73923072Y-136930000D01*
X71247000Y-136930000D01*
X71247000Y-128774750D01*
X73268000Y-128774750D01*
X73268000Y-130304392D01*
X73409127Y-130645103D01*
X73669896Y-130905873D01*
X74010608Y-131047000D01*
X74940250Y-131047000D01*
X75172000Y-130815250D01*
X75172000Y-128543000D01*
X75718000Y-128543000D01*
X75718000Y-130815250D01*
X75949750Y-131047000D01*
X76879392Y-131047000D01*
X77220104Y-130905873D01*
X77480873Y-130645103D01*
X77622000Y-130304392D01*
X77622000Y-128774750D01*
X77390250Y-128543000D01*
X75718000Y-128543000D01*
X75172000Y-128543000D01*
X75172000Y-128543000D01*
X73499750Y-128543000D01*
X73268000Y-128774750D01*
X71247000Y-128774750D01*
X71247000Y-126235608D01*
X73268000Y-126235608D01*
X73268000Y-127765250D01*
X73499750Y-127997000D01*
X75172000Y-127997000D01*
X75172000Y-125724750D01*
X75718000Y-125724750D01*
X75718000Y-127997000D01*
X77390250Y-127997000D01*
X77622000Y-127765250D01*
X77622000Y-126235608D01*
X77480873Y-125894897D01*
X77432976Y-125847000D01*
X78340250Y-125847000D01*
X78572000Y-125615250D01*
X78572000Y-123943000D01*
X76299750Y-123943000D01*
X76068000Y-124174750D01*
X76068000Y-125104392D01*
X76209127Y-125445103D01*
X76257024Y-125493000D01*
X75949750Y-125493000D01*
X75718000Y-125724750D01*
X75172000Y-125724750D01*
X75172000Y-125724750D01*
X74940250Y-125493000D01*
X74010608Y-125493000D01*
X73669896Y-125634127D01*
X73409127Y-125894897D01*
X73268000Y-126235608D01*
X71247000Y-126235608D01*
X71247000Y-122235608D01*
X76068000Y-122235608D01*
X76068000Y-123165250D01*
X76299750Y-123397000D01*
X78572000Y-123397000D01*
X78572000Y-121724750D01*
X79118000Y-121724750D01*
X79118000Y-123397000D01*
X81390250Y-123397000D01*
X81622000Y-123165250D01*
X81622000Y-123013264D01*
X86359405Y-123013264D01*
X86436826Y-123755957D01*
X86572094Y-124082522D01*
X86898360Y-124170560D01*
X87878920Y-123190000D01*
X88651080Y-123190000D01*
X89631640Y-124170560D01*
X89957906Y-124082522D01*
X90170595Y-123366736D01*
X90093174Y-122624043D01*
X89957906Y-122297478D01*
X89631640Y-122209440D01*
X88651080Y-123190000D01*
X87878920Y-123190000D01*
X87878920Y-123190000D01*
X86898360Y-122209440D01*
X86572094Y-122297478D01*
X86359405Y-123013264D01*
X81622000Y-123013264D01*
X81622000Y-122235608D01*
X81480873Y-121894897D01*
X81409337Y-121823360D01*
X87284440Y-121823360D01*
X88265000Y-122803920D01*
X89245560Y-121823360D01*
X89157522Y-121497094D01*
X88441736Y-121284405D01*
X87699043Y-121361826D01*
X87372478Y-121497094D01*
X87284440Y-121823360D01*
X81409337Y-121823360D01*
X81220104Y-121634127D01*
X80879392Y-121493000D01*
X79349750Y-121493000D01*
X79118000Y-121724750D01*
X78572000Y-121724750D01*
X78572000Y-121724750D01*
X78340250Y-121493000D01*
X76810608Y-121493000D01*
X76469896Y-121634127D01*
X76209127Y-121894897D01*
X76068000Y-122235608D01*
X71247000Y-122235608D01*
X71247000Y-114804750D01*
X90513000Y-114804750D01*
X90513000Y-115754392D01*
X90654127Y-116095103D01*
X90914896Y-116355873D01*
X91255608Y-116497000D01*
X92205250Y-116497000D01*
X92437000Y-116265250D01*
X92437000Y-114573000D01*
X92983000Y-114573000D01*
X92983000Y-116265250D01*
X93214750Y-116497000D01*
X94164392Y-116497000D01*
X94505104Y-116355873D01*
X94765873Y-116095103D01*
X94907000Y-115754392D01*
X94907000Y-114804750D01*
X94675250Y-114573000D01*
X92983000Y-114573000D01*
X92437000Y-114573000D01*
X92437000Y-114573000D01*
X90744750Y-114573000D01*
X90513000Y-114804750D01*
X71247000Y-114804750D01*
X71247000Y-112845608D01*
X90513000Y-112845608D01*
X90513000Y-113795250D01*
X90744750Y-114027000D01*
X92437000Y-114027000D01*
X92437000Y-112334750D01*
X92983000Y-112334750D01*
X92983000Y-114027000D01*
X94675250Y-114027000D01*
X94907000Y-113795250D01*
X94907000Y-112845608D01*
X94765873Y-112504897D01*
X94505104Y-112244127D01*
X94164392Y-112103000D01*
X93214750Y-112103000D01*
X92983000Y-112334750D01*
X92437000Y-112334750D01*
X92437000Y-112334750D01*
X92205250Y-112103000D01*
X91255608Y-112103000D01*
X90914896Y-112244127D01*
X90654127Y-112504897D01*
X90513000Y-112845608D01*
X71247000Y-112845608D01*
X71247000Y-109347000D01*
X137033000Y-109347000D01*
X137033000Y-111759994D01*
X137033000Y-111759994D01*
G37*
X137033000Y-111759994D02*
X137032999Y-111760000D01*
X137042667Y-111808601D01*
X137070197Y-111849803D01*
X139573000Y-114352605D01*
X139573000Y-147267394D01*
X137070197Y-149770197D01*
X137042667Y-149811399D01*
X137032999Y-149860000D01*
X137033000Y-149860005D01*
X137033000Y-161237394D01*
X135837394Y-162433000D01*
X71247000Y-162433000D01*
X71247000Y-159472191D01*
X93472000Y-159472191D01*
X93472000Y-160567809D01*
X93588008Y-161151019D01*
X93918369Y-161645440D01*
X94412790Y-161975801D01*
X94996000Y-162091809D01*
X95579210Y-161975801D01*
X96073631Y-161645440D01*
X96161838Y-161513429D01*
X96342020Y-161771566D01*
X97005618Y-162131563D01*
X97263000Y-161959450D01*
X97263000Y-160293000D01*
X97243000Y-160293000D01*
X97243000Y-159747000D01*
X97263000Y-159747000D01*
X97263000Y-158080550D01*
X97005618Y-157908437D01*
X96342020Y-158268434D01*
X96161838Y-158526571D01*
X96073631Y-158394560D01*
X95579210Y-158064199D01*
X94996000Y-157948191D01*
X94412790Y-158064199D01*
X93918369Y-158394560D01*
X93588008Y-158888981D01*
X93472000Y-159472191D01*
X71247000Y-159472191D01*
X71247000Y-143957966D01*
X73937608Y-143957966D01*
X74281252Y-144789646D01*
X74917007Y-145426512D01*
X75748086Y-145771606D01*
X76647966Y-145772392D01*
X77479646Y-145428748D01*
X78116512Y-144792993D01*
X78121907Y-144780000D01*
X80644995Y-144780000D01*
X80645000Y-144780001D01*
X81131008Y-144683327D01*
X81250831Y-144603264D01*
X85089405Y-144603264D01*
X85166826Y-145345957D01*
X85302094Y-145672522D01*
X85628360Y-145760560D01*
X86608920Y-144780000D01*
X85628360Y-143799440D01*
X85302094Y-143887478D01*
X85089405Y-144603264D01*
X81250831Y-144603264D01*
X81543026Y-144408026D01*
X82537692Y-143413360D01*
X86014440Y-143413360D01*
X86995000Y-144393920D01*
X87975560Y-143413360D01*
X87887522Y-143087094D01*
X87171736Y-142874405D01*
X86429043Y-142951826D01*
X86102478Y-143087094D01*
X86014440Y-143413360D01*
X82537692Y-143413360D01*
X84346052Y-141605000D01*
X88264995Y-141605000D01*
X88265000Y-141605001D01*
X88751008Y-141508327D01*
X89163026Y-141233026D01*
X90433023Y-139963028D01*
X90433026Y-139963026D01*
X90708327Y-139551008D01*
X90805000Y-139065000D01*
X90805000Y-137676238D01*
X90805104Y-137676134D01*
X90932000Y-137803252D01*
X90932000Y-139700000D01*
X91019006Y-140137407D01*
X91266777Y-140508223D01*
X92536777Y-141778223D01*
X92907593Y-142025994D01*
X93345000Y-142113000D01*
X94776554Y-142113000D01*
X96300554Y-143637000D01*
X93353016Y-143637000D01*
X93046036Y-143329483D01*
X92417032Y-143068298D01*
X91735956Y-143067704D01*
X91106497Y-143327791D01*
X90804896Y-143628866D01*
X90506036Y-143329483D01*
X89877032Y-143068298D01*
X89195956Y-143067704D01*
X88566497Y-143327791D01*
X88084483Y-143808964D01*
X87894439Y-144266641D01*
X87381080Y-144780000D01*
X87395223Y-144794143D01*
X87009143Y-145180223D01*
X86995000Y-145166080D01*
X86014440Y-146146640D01*
X86102478Y-146472906D01*
X86818264Y-146685595D01*
X87560957Y-146608174D01*
X87887522Y-146472906D01*
X87975559Y-146146642D01*
X88126433Y-146297516D01*
X87103948Y-147320000D01*
X78122734Y-147320000D01*
X78118748Y-147310354D01*
X77482993Y-146673488D01*
X76651914Y-146328394D01*
X75752034Y-146327608D01*
X74920354Y-146671252D01*
X74283488Y-147307007D01*
X73938394Y-148138086D01*
X73937608Y-149037966D01*
X74281252Y-149869646D01*
X74917007Y-150506512D01*
X75748086Y-150851606D01*
X76647966Y-150852392D01*
X77279032Y-150591640D01*
X94904440Y-150591640D01*
X94992478Y-150917906D01*
X95708264Y-151130595D01*
X96450957Y-151053174D01*
X96777522Y-150917906D01*
X96865560Y-150591640D01*
X95885000Y-149611080D01*
X94904440Y-150591640D01*
X77279032Y-150591640D01*
X77479646Y-150508748D01*
X78116512Y-149872993D01*
X78121907Y-149860000D01*
X87629995Y-149860000D01*
X87630000Y-149860001D01*
X88116008Y-149763327D01*
X88528026Y-149488026D01*
X88967787Y-149048264D01*
X93979405Y-149048264D01*
X94056826Y-149790957D01*
X94192094Y-150117522D01*
X94518360Y-150205560D01*
X95498920Y-149225000D01*
X96271080Y-149225000D01*
X97251640Y-150205560D01*
X97577906Y-150117522D01*
X97790595Y-149401736D01*
X97713174Y-148659043D01*
X97577906Y-148332478D01*
X97251640Y-148244440D01*
X96271080Y-149225000D01*
X95498920Y-149225000D01*
X95498920Y-149225000D01*
X94518360Y-148244440D01*
X94192094Y-148332478D01*
X93979405Y-149048264D01*
X88967787Y-149048264D01*
X90157691Y-147858360D01*
X94904440Y-147858360D01*
X95885000Y-148838920D01*
X96865560Y-147858360D01*
X96777522Y-147532094D01*
X96061736Y-147319405D01*
X95319043Y-147396826D01*
X94992478Y-147532094D01*
X94904440Y-147858360D01*
X90157691Y-147858360D01*
X90433023Y-147583028D01*
X90433026Y-147583026D01*
X90708327Y-147171008D01*
X90805001Y-146685000D01*
X90805000Y-146684995D01*
X90805000Y-145931238D01*
X90805104Y-145931134D01*
X91103964Y-146230517D01*
X91732968Y-146491702D01*
X92414044Y-146492296D01*
X93043503Y-146232209D01*
X93353252Y-145923000D01*
X96046554Y-145923000D01*
X106553000Y-156429446D01*
X106553000Y-158492392D01*
X106426000Y-158682461D01*
X106299000Y-158492392D01*
X106299000Y-157226000D01*
X106211994Y-156788593D01*
X105964223Y-156417777D01*
X102408223Y-152861777D01*
X102037407Y-152614006D01*
X101600000Y-152527000D01*
X93353016Y-152527000D01*
X93046036Y-152219483D01*
X92417032Y-151958298D01*
X91735956Y-151957704D01*
X91106497Y-152217791D01*
X90804896Y-152518866D01*
X90506036Y-152219483D01*
X89877032Y-151958298D01*
X89195956Y-151957704D01*
X88566497Y-152217791D01*
X88084483Y-152698964D01*
X87894439Y-153156641D01*
X87381080Y-153670000D01*
X87395223Y-153684143D01*
X87009143Y-154070223D01*
X86995000Y-154056080D01*
X86014440Y-155036640D01*
X86102478Y-155362906D01*
X86818264Y-155575595D01*
X87560957Y-155498174D01*
X87887522Y-155362906D01*
X87975559Y-155036642D01*
X88153441Y-155214524D01*
X88265000Y-155102965D01*
X88265000Y-155683949D01*
X87738948Y-156210000D01*
X84346051Y-156210000D01*
X81629316Y-153493264D01*
X85089405Y-153493264D01*
X85166826Y-154235957D01*
X85302094Y-154562522D01*
X85628360Y-154650560D01*
X86608920Y-153670000D01*
X85628360Y-152689440D01*
X85302094Y-152777478D01*
X85089405Y-153493264D01*
X81629316Y-153493264D01*
X80908026Y-152771974D01*
X80496008Y-152496673D01*
X80010000Y-152399999D01*
X80009995Y-152400000D01*
X78122734Y-152400000D01*
X78118748Y-152390354D01*
X78031906Y-152303360D01*
X86014440Y-152303360D01*
X86995000Y-153283920D01*
X87975560Y-152303360D01*
X87887522Y-151977094D01*
X87171736Y-151764405D01*
X86429043Y-151841826D01*
X86102478Y-151977094D01*
X86014440Y-152303360D01*
X78031906Y-152303360D01*
X77482993Y-151753488D01*
X76651914Y-151408394D01*
X75752034Y-151407608D01*
X74920354Y-151751252D01*
X74283488Y-152387007D01*
X73938394Y-153218086D01*
X73937608Y-154117966D01*
X74281252Y-154949646D01*
X74917007Y-155586512D01*
X75748086Y-155931606D01*
X76647966Y-155932392D01*
X77479646Y-155588748D01*
X78116512Y-154952993D01*
X78121907Y-154940000D01*
X79483948Y-154940000D01*
X82921972Y-158378023D01*
X82921974Y-158378026D01*
X83333992Y-158653327D01*
X83820000Y-158750001D01*
X83820005Y-158750000D01*
X88264995Y-158750000D01*
X88265000Y-158750001D01*
X88751008Y-158653327D01*
X89163026Y-158378026D01*
X90433023Y-157108028D01*
X90433026Y-157108026D01*
X90708327Y-156696008D01*
X90805000Y-156210000D01*
X90805000Y-154821238D01*
X90805104Y-154821134D01*
X91103964Y-155120517D01*
X91732968Y-155381702D01*
X92414044Y-155382296D01*
X93043503Y-155122209D01*
X93353252Y-154813000D01*
X101126554Y-154813000D01*
X104013000Y-157699446D01*
X104013000Y-158492392D01*
X103886000Y-158682461D01*
X103693631Y-158394560D01*
X103199210Y-158064199D01*
X102616000Y-157948191D01*
X102032790Y-158064199D01*
X101538369Y-158394560D01*
X101346000Y-158682461D01*
X101153631Y-158394560D01*
X100659210Y-158064199D01*
X100076000Y-157948191D01*
X99492790Y-158064199D01*
X98998369Y-158394560D01*
X98910162Y-158526571D01*
X98729980Y-158268434D01*
X98066382Y-157908437D01*
X97809000Y-158080550D01*
X97809000Y-159747000D01*
X97829000Y-159747000D01*
X97829000Y-160293000D01*
X97809000Y-160293000D01*
X97809000Y-161959450D01*
X98066382Y-162131563D01*
X98729980Y-161771566D01*
X98910162Y-161513429D01*
X98998369Y-161645440D01*
X99492790Y-161975801D01*
X100076000Y-162091809D01*
X100659210Y-161975801D01*
X101153631Y-161645440D01*
X101346000Y-161357539D01*
X101538369Y-161645440D01*
X102032790Y-161975801D01*
X102616000Y-162091809D01*
X103199210Y-161975801D01*
X103693631Y-161645440D01*
X103886000Y-161357539D01*
X104078369Y-161645440D01*
X104572790Y-161975801D01*
X105156000Y-162091809D01*
X105739210Y-161975801D01*
X106233631Y-161645440D01*
X106426000Y-161357539D01*
X106618369Y-161645440D01*
X107112790Y-161975801D01*
X107696000Y-162091809D01*
X108279210Y-161975801D01*
X108773631Y-161645440D01*
X108966000Y-161357539D01*
X109158369Y-161645440D01*
X109652790Y-161975801D01*
X110236000Y-162091809D01*
X110819210Y-161975801D01*
X111313631Y-161645440D01*
X111506000Y-161357539D01*
X111698369Y-161645440D01*
X112192790Y-161975801D01*
X112776000Y-162091809D01*
X113359210Y-161975801D01*
X113853631Y-161645440D01*
X114183992Y-161151019D01*
X114300000Y-160567809D01*
X114300000Y-159472191D01*
X114183992Y-158888981D01*
X113853631Y-158394560D01*
X113359210Y-158064199D01*
X112776000Y-157948191D01*
X112192790Y-158064199D01*
X111698369Y-158394560D01*
X111506000Y-158682461D01*
X111379000Y-158492392D01*
X111379000Y-155956000D01*
X111291994Y-155518593D01*
X111044223Y-155147777D01*
X106488086Y-150591640D01*
X108239440Y-150591640D01*
X108327478Y-150917906D01*
X109043264Y-151130595D01*
X109785957Y-151053174D01*
X110112522Y-150917906D01*
X110200560Y-150591640D01*
X109220000Y-149611080D01*
X108239440Y-150591640D01*
X106488086Y-150591640D01*
X104944710Y-149048264D01*
X107314405Y-149048264D01*
X107391826Y-149790957D01*
X107527094Y-150117522D01*
X107853360Y-150205560D01*
X108833920Y-149225000D01*
X109606080Y-149225000D01*
X110586640Y-150205560D01*
X110912906Y-150117522D01*
X111125595Y-149401736D01*
X111048174Y-148659043D01*
X110912906Y-148332478D01*
X110586640Y-148244440D01*
X109606080Y-149225000D01*
X108833920Y-149225000D01*
X108833920Y-149225000D01*
X107853360Y-148244440D01*
X107527094Y-148332478D01*
X107314405Y-149048264D01*
X104944710Y-149048264D01*
X103754806Y-147858360D01*
X108239440Y-147858360D01*
X109220000Y-148838920D01*
X110200560Y-147858360D01*
X110112522Y-147532094D01*
X109396736Y-147319405D01*
X108654043Y-147396826D01*
X108327478Y-147532094D01*
X108239440Y-147858360D01*
X103754806Y-147858360D01*
X96999231Y-141102785D01*
X101853296Y-141102785D01*
X101947521Y-141434139D01*
X102681367Y-141655153D01*
X103443930Y-141578513D01*
X103792479Y-141434139D01*
X103886704Y-141102785D01*
X102870000Y-140086080D01*
X101853296Y-141102785D01*
X96999231Y-141102785D01*
X96058223Y-140161777D01*
X95687407Y-139914006D01*
X95250000Y-139827000D01*
X93818446Y-139827000D01*
X93502813Y-139511367D01*
X100914847Y-139511367D01*
X100991487Y-140273930D01*
X101135861Y-140622479D01*
X101467215Y-140716704D01*
X102483920Y-139700000D01*
X103256080Y-139700000D01*
X104272785Y-140716704D01*
X104604139Y-140622479D01*
X104825153Y-139888633D01*
X104748513Y-139126070D01*
X104604139Y-138777521D01*
X104272785Y-138683296D01*
X103256080Y-139700000D01*
X102483920Y-139700000D01*
X102483920Y-139700000D01*
X101467215Y-138683296D01*
X101135861Y-138777521D01*
X100914847Y-139511367D01*
X93502813Y-139511367D01*
X93218000Y-139226554D01*
X93218000Y-138297215D01*
X101853296Y-138297215D01*
X102870000Y-139313920D01*
X103886704Y-138297215D01*
X103792479Y-137965861D01*
X103058633Y-137744847D01*
X102296070Y-137821487D01*
X101947521Y-137965861D01*
X101853296Y-138297215D01*
X93218000Y-138297215D01*
X93218000Y-137803016D01*
X93525517Y-137496036D01*
X93786702Y-136867032D01*
X93787296Y-136185956D01*
X93719876Y-136022785D01*
X101853296Y-136022785D01*
X101947521Y-136354139D01*
X102681367Y-136575153D01*
X103443930Y-136498513D01*
X103792479Y-136354139D01*
X103886704Y-136022785D01*
X102870000Y-135006080D01*
X101853296Y-136022785D01*
X93719876Y-136022785D01*
X93527209Y-135556497D01*
X93046036Y-135074483D01*
X92417032Y-134813298D01*
X91735956Y-134812704D01*
X91106497Y-135072791D01*
X90804896Y-135373866D01*
X90506036Y-135074483D01*
X89877032Y-134813298D01*
X89195956Y-134812704D01*
X88566497Y-135072791D01*
X88084483Y-135553964D01*
X87894439Y-136011641D01*
X87381080Y-136525000D01*
X87395223Y-136539143D01*
X87009143Y-136925223D01*
X86995000Y-136911080D01*
X86014440Y-137891640D01*
X86102478Y-138217906D01*
X86818264Y-138430595D01*
X87560957Y-138353174D01*
X87887522Y-138217906D01*
X87975559Y-137891642D01*
X88153441Y-138069524D01*
X88265000Y-137957965D01*
X88265000Y-138538949D01*
X87738948Y-139065000D01*
X83820005Y-139065000D01*
X83820000Y-139064999D01*
X83333992Y-139161673D01*
X82921974Y-139436974D01*
X80118948Y-142240000D01*
X78122734Y-142240000D01*
X78118748Y-142230354D01*
X77482993Y-141593488D01*
X76651914Y-141248394D01*
X75752034Y-141247608D01*
X74920354Y-141591252D01*
X74283488Y-142227007D01*
X73938394Y-143058086D01*
X73937608Y-143957966D01*
X71247000Y-143957966D01*
X71247000Y-136930000D01*
X73923072Y-136930000D01*
X73923072Y-139930000D01*
X73979445Y-140220548D01*
X74147192Y-140475913D01*
X74400432Y-140646852D01*
X74700000Y-140706928D01*
X77700000Y-140706928D01*
X77990548Y-140650555D01*
X78245913Y-140482808D01*
X78416852Y-140229568D01*
X78472115Y-139954000D01*
X78740000Y-139954000D01*
X79323210Y-139837992D01*
X79817631Y-139507631D01*
X82822631Y-136502631D01*
X82925775Y-136348264D01*
X85089405Y-136348264D01*
X85166826Y-137090957D01*
X85302094Y-137417522D01*
X85628360Y-137505560D01*
X86608920Y-136525000D01*
X85628360Y-135544440D01*
X85302094Y-135632478D01*
X85089405Y-136348264D01*
X82925775Y-136348264D01*
X83152993Y-136008209D01*
X83269001Y-135425000D01*
X83269000Y-135424995D01*
X83269000Y-135158360D01*
X86014440Y-135158360D01*
X86995000Y-136138920D01*
X87975560Y-135158360D01*
X87887522Y-134832094D01*
X87171736Y-134619405D01*
X86429043Y-134696826D01*
X86102478Y-134832094D01*
X86014440Y-135158360D01*
X83269000Y-135158360D01*
X83269000Y-134431367D01*
X100914847Y-134431367D01*
X100991487Y-135193930D01*
X101135861Y-135542479D01*
X101467215Y-135636704D01*
X102483920Y-134620000D01*
X103256080Y-134620000D01*
X104272785Y-135636704D01*
X104604139Y-135542479D01*
X104776901Y-134968845D01*
X111268205Y-134968845D01*
X111535810Y-135616501D01*
X112030893Y-136112448D01*
X112678081Y-136381184D01*
X113378845Y-136381795D01*
X114026501Y-136114190D01*
X114258094Y-135883000D01*
X124491984Y-135883000D01*
X124627000Y-136018252D01*
X124627000Y-144266554D01*
X121111777Y-147781777D01*
X120864006Y-148152593D01*
X120777000Y-148590000D01*
X120777000Y-158492392D01*
X120650000Y-158682461D01*
X120457631Y-158394560D01*
X119963210Y-158064199D01*
X119380000Y-157948191D01*
X118796790Y-158064199D01*
X118302369Y-158394560D01*
X118110000Y-158682461D01*
X117983000Y-158492392D01*
X117983000Y-153043016D01*
X118290517Y-152736036D01*
X118551702Y-152107032D01*
X118552296Y-151425956D01*
X118292209Y-150796497D01*
X118287907Y-150792187D01*
X118385913Y-150727808D01*
X118556852Y-150474568D01*
X118616928Y-150175000D01*
X118616928Y-148275000D01*
X118560555Y-147984452D01*
X118392808Y-147729087D01*
X118139568Y-147558148D01*
X117983000Y-147526750D01*
X117983000Y-142638456D01*
X120057652Y-142638456D01*
X120363315Y-143378217D01*
X120928806Y-143944696D01*
X121668033Y-144251650D01*
X122468456Y-144252348D01*
X123208217Y-143946685D01*
X123774696Y-143381194D01*
X124081650Y-142641967D01*
X124082348Y-141841544D01*
X123776685Y-141101783D01*
X123211194Y-140535304D01*
X122471967Y-140228350D01*
X121671544Y-140227652D01*
X120931783Y-140533315D01*
X120365304Y-141098806D01*
X120058350Y-141838033D01*
X120057652Y-142638456D01*
X117983000Y-142638456D01*
X117983000Y-140970000D01*
X117895994Y-140532593D01*
X117648223Y-140161777D01*
X116378223Y-138891777D01*
X116007407Y-138644006D01*
X115570000Y-138557000D01*
X114377946Y-138557000D01*
X114029107Y-138207552D01*
X113381919Y-137938816D01*
X112681155Y-137938205D01*
X112033499Y-138205810D01*
X111537552Y-138700893D01*
X111268816Y-139348081D01*
X111268205Y-140048845D01*
X111535810Y-140696501D01*
X112030893Y-141192448D01*
X112678081Y-141461184D01*
X113378845Y-141461795D01*
X114026501Y-141194190D01*
X114378304Y-140843000D01*
X115096554Y-140843000D01*
X115697000Y-141443446D01*
X115697000Y-147525817D01*
X115549452Y-147554445D01*
X115294087Y-147722192D01*
X115123148Y-147975432D01*
X115063072Y-148275000D01*
X115063072Y-150175000D01*
X115119445Y-150465548D01*
X115287192Y-150720913D01*
X115391876Y-150791575D01*
X115389483Y-150793964D01*
X115128298Y-151422968D01*
X115127704Y-152104044D01*
X115387791Y-152733503D01*
X115697000Y-153043252D01*
X115697000Y-158492392D01*
X115432008Y-158888981D01*
X115316000Y-159472191D01*
X115316000Y-160567809D01*
X115432008Y-161151019D01*
X115762369Y-161645440D01*
X116256790Y-161975801D01*
X116840000Y-162091809D01*
X117423210Y-161975801D01*
X117917631Y-161645440D01*
X118110000Y-161357539D01*
X118302369Y-161645440D01*
X118796790Y-161975801D01*
X119380000Y-162091809D01*
X119963210Y-161975801D01*
X120457631Y-161645440D01*
X120650000Y-161357539D01*
X120842369Y-161645440D01*
X121336790Y-161975801D01*
X121920000Y-162091809D01*
X122503210Y-161975801D01*
X122997631Y-161645440D01*
X123190000Y-161357539D01*
X123382369Y-161645440D01*
X123876790Y-161975801D01*
X124460000Y-162091809D01*
X125043210Y-161975801D01*
X125537631Y-161645440D01*
X125730000Y-161357539D01*
X125922369Y-161645440D01*
X126416790Y-161975801D01*
X127000000Y-162091809D01*
X127583210Y-161975801D01*
X128077631Y-161645440D01*
X128270000Y-161357539D01*
X128462369Y-161645440D01*
X128956790Y-161975801D01*
X129540000Y-162091809D01*
X130123210Y-161975801D01*
X130617631Y-161645440D01*
X130810000Y-161357539D01*
X131002369Y-161645440D01*
X131496790Y-161975801D01*
X132080000Y-162091809D01*
X132663210Y-161975801D01*
X133157631Y-161645440D01*
X133350000Y-161357539D01*
X133542369Y-161645440D01*
X134036790Y-161975801D01*
X134620000Y-162091809D01*
X135203210Y-161975801D01*
X135697631Y-161645440D01*
X136027992Y-161151019D01*
X136144000Y-160567809D01*
X136144000Y-159472191D01*
X136027992Y-158888981D01*
X135697631Y-158394560D01*
X135203210Y-158064199D01*
X134620000Y-157948191D01*
X134036790Y-158064199D01*
X133542369Y-158394560D01*
X133350000Y-158682461D01*
X133157631Y-158394560D01*
X132663210Y-158064199D01*
X132080000Y-157948191D01*
X131496790Y-158064199D01*
X131002369Y-158394560D01*
X130810000Y-158682461D01*
X130683000Y-158492392D01*
X130683000Y-154143446D01*
X131578223Y-153248223D01*
X131825994Y-152877407D01*
X131913000Y-152440000D01*
X131913000Y-150518016D01*
X132220517Y-150211036D01*
X132481702Y-149582032D01*
X132482296Y-148900956D01*
X132222209Y-148271497D01*
X131741036Y-147789483D01*
X131112032Y-147528298D01*
X130430956Y-147527704D01*
X129801497Y-147787791D01*
X129319483Y-148268964D01*
X129101036Y-148795044D01*
X128656080Y-149240000D01*
X129101769Y-149685689D01*
X129317791Y-150208503D01*
X129627000Y-150518252D01*
X129627000Y-151966554D01*
X128731777Y-152861777D01*
X128484006Y-153232593D01*
X128397000Y-153670000D01*
X128397000Y-158492392D01*
X128270000Y-158682461D01*
X128143000Y-158492392D01*
X128143000Y-153670000D01*
X128055994Y-153232593D01*
X127808223Y-152861777D01*
X126873000Y-151926554D01*
X126873000Y-150606640D01*
X127289440Y-150606640D01*
X127377478Y-150932906D01*
X128093264Y-151145595D01*
X128835957Y-151068174D01*
X129162522Y-150932906D01*
X129250560Y-150606640D01*
X128270000Y-149626080D01*
X127289440Y-150606640D01*
X126873000Y-150606640D01*
X126873000Y-150557947D01*
X127220517Y-150211036D01*
X127438964Y-149684956D01*
X127883920Y-149240000D01*
X127438231Y-148794311D01*
X127222209Y-148271497D01*
X126824767Y-147873360D01*
X127289440Y-147873360D01*
X128270000Y-148853920D01*
X129250560Y-147873360D01*
X129162522Y-147547094D01*
X128446736Y-147334405D01*
X127704043Y-147411826D01*
X127377478Y-147547094D01*
X127289440Y-147873360D01*
X126824767Y-147873360D01*
X126741036Y-147789483D01*
X126112032Y-147528298D01*
X125430956Y-147527704D01*
X124801497Y-147787791D01*
X124319483Y-148268964D01*
X124058298Y-148897968D01*
X124057704Y-149579044D01*
X124317791Y-150208503D01*
X124587000Y-150478183D01*
X124587000Y-152400000D01*
X124674006Y-152837407D01*
X124921777Y-153208223D01*
X125857000Y-154143446D01*
X125857000Y-158492392D01*
X125730000Y-158682461D01*
X125537631Y-158394560D01*
X125043210Y-158064199D01*
X124460000Y-157948191D01*
X123876790Y-158064199D01*
X123382369Y-158394560D01*
X123190000Y-158682461D01*
X123063000Y-158492392D01*
X123063000Y-149063446D01*
X126578223Y-145548223D01*
X126825994Y-145177407D01*
X126913000Y-144740000D01*
X126913000Y-142638456D01*
X132857652Y-142638456D01*
X133163315Y-143378217D01*
X133728806Y-143944696D01*
X134468033Y-144251650D01*
X135268456Y-144252348D01*
X136008217Y-143946685D01*
X136574696Y-143381194D01*
X136881650Y-142641967D01*
X136882348Y-141841544D01*
X136576685Y-141101783D01*
X136011194Y-140535304D01*
X135271967Y-140228350D01*
X134471544Y-140227652D01*
X133731783Y-140533315D01*
X133165304Y-141098806D01*
X132858350Y-141838033D01*
X132857652Y-142638456D01*
X126913000Y-142638456D01*
X126913000Y-136018016D01*
X127220517Y-135711036D01*
X127481702Y-135082032D01*
X127482296Y-134400956D01*
X127222209Y-133771497D01*
X126741036Y-133289483D01*
X126112032Y-133028298D01*
X125430956Y-133027704D01*
X124801497Y-133287791D01*
X124491748Y-133597000D01*
X114497737Y-133597000D01*
X114029107Y-133127552D01*
X113381919Y-132858816D01*
X112681155Y-132858205D01*
X112033499Y-133125810D01*
X111537552Y-133620893D01*
X111268816Y-134268081D01*
X111268205Y-134968845D01*
X104776901Y-134968845D01*
X104825153Y-134808633D01*
X104748513Y-134046070D01*
X104604139Y-133697521D01*
X104272785Y-133603296D01*
X103256080Y-134620000D01*
X102483920Y-134620000D01*
X102483920Y-134620000D01*
X101467215Y-133603296D01*
X101135861Y-133697521D01*
X100914847Y-134431367D01*
X83269000Y-134431367D01*
X83269000Y-133446640D01*
X87284440Y-133446640D01*
X87372478Y-133772906D01*
X88088264Y-133985595D01*
X88830957Y-133908174D01*
X89157522Y-133772906D01*
X89245560Y-133446640D01*
X89016135Y-133217215D01*
X101853296Y-133217215D01*
X102870000Y-134233920D01*
X103886704Y-133217215D01*
X103792479Y-132885861D01*
X103058633Y-132664847D01*
X102296070Y-132741487D01*
X101947521Y-132885861D01*
X101853296Y-133217215D01*
X89016135Y-133217215D01*
X88265000Y-132466080D01*
X87284440Y-133446640D01*
X83269000Y-133446640D01*
X83269000Y-131903264D01*
X86359405Y-131903264D01*
X86436826Y-132645957D01*
X86572094Y-132972522D01*
X86898360Y-133060560D01*
X87878920Y-132080000D01*
X88651080Y-132080000D01*
X89631640Y-133060560D01*
X89957906Y-132972522D01*
X90170595Y-132256736D01*
X90093174Y-131514043D01*
X89957906Y-131187478D01*
X89631640Y-131099440D01*
X88651080Y-132080000D01*
X87878920Y-132080000D01*
X87878920Y-132080000D01*
X86898360Y-131099440D01*
X86572094Y-131187478D01*
X86359405Y-131903264D01*
X83269000Y-131903264D01*
X83269000Y-130843766D01*
X83285548Y-130840555D01*
X83479179Y-130713360D01*
X87284440Y-130713360D01*
X88265000Y-131693920D01*
X89245560Y-130713360D01*
X89157522Y-130387094D01*
X88441736Y-130174405D01*
X87699043Y-130251826D01*
X87372478Y-130387094D01*
X87284440Y-130713360D01*
X83479179Y-130713360D01*
X83540913Y-130672808D01*
X83711852Y-130419568D01*
X83771928Y-130120000D01*
X83771928Y-129879044D01*
X102427704Y-129879044D01*
X102687791Y-130508503D01*
X103168964Y-130990517D01*
X103797968Y-131251702D01*
X104479044Y-131252296D01*
X105108503Y-130992209D01*
X105418252Y-130683000D01*
X127796554Y-130683000D01*
X129627000Y-132513446D01*
X129627000Y-133461984D01*
X129319483Y-133768964D01*
X129058298Y-134397968D01*
X129057704Y-135079044D01*
X129317791Y-135708503D01*
X129798964Y-136190517D01*
X130427968Y-136451702D01*
X131109044Y-136452296D01*
X131738503Y-136192209D01*
X132220517Y-135711036D01*
X132481702Y-135082032D01*
X132482296Y-134400956D01*
X132222209Y-133771497D01*
X131913000Y-133461748D01*
X131913000Y-132040000D01*
X131825994Y-131602593D01*
X131578223Y-131231777D01*
X129078223Y-128731777D01*
X128707407Y-128484006D01*
X128270000Y-128397000D01*
X105418016Y-128397000D01*
X105111036Y-128089483D01*
X104482032Y-127828298D01*
X103800956Y-127827704D01*
X103171497Y-128087791D01*
X102689483Y-128568964D01*
X102428298Y-129197968D01*
X102427704Y-129879044D01*
X83771928Y-129879044D01*
X83771928Y-129794000D01*
X91440000Y-129794000D01*
X92023210Y-129677992D01*
X92517631Y-129347631D01*
X97790000Y-124075262D01*
X98617369Y-124902631D01*
X99111791Y-125232993D01*
X99695000Y-125349000D01*
X119380000Y-125349000D01*
X119963210Y-125232992D01*
X120457631Y-124902631D01*
X122362631Y-122997631D01*
X122692993Y-122503209D01*
X122809000Y-121920000D01*
X122809000Y-120147785D01*
X125348296Y-120147785D01*
X125442521Y-120479139D01*
X126176367Y-120700153D01*
X126938930Y-120623513D01*
X127287479Y-120479139D01*
X127381704Y-120147785D01*
X126365000Y-119131080D01*
X125348296Y-120147785D01*
X122809000Y-120147785D01*
X122809000Y-118556367D01*
X124409847Y-118556367D01*
X124486487Y-119318930D01*
X124630861Y-119667479D01*
X124962215Y-119761704D01*
X125978920Y-118745000D01*
X126751080Y-118745000D01*
X127767785Y-119761704D01*
X128099139Y-119667479D01*
X128320153Y-118933633D01*
X128243513Y-118171070D01*
X128099139Y-117822521D01*
X127767785Y-117728296D01*
X126751080Y-118745000D01*
X125978920Y-118745000D01*
X125978920Y-118745000D01*
X124962215Y-117728296D01*
X124630861Y-117822521D01*
X124409847Y-118556367D01*
X122809000Y-118556367D01*
X122809000Y-117342215D01*
X125348296Y-117342215D01*
X126365000Y-118358920D01*
X127381704Y-117342215D01*
X127287479Y-117010861D01*
X126553633Y-116789847D01*
X125791070Y-116866487D01*
X125442521Y-117010861D01*
X125348296Y-117342215D01*
X122809000Y-117342215D01*
X122809000Y-116840000D01*
X122692992Y-116256790D01*
X122362631Y-115762369D01*
X121092631Y-114492369D01*
X120883459Y-114352605D01*
X120598210Y-114162008D01*
X120015000Y-114046000D01*
X118741262Y-114046000D01*
X118364000Y-113668738D01*
X118364000Y-111212191D01*
X120396000Y-111212191D01*
X120396000Y-112307809D01*
X120512008Y-112891019D01*
X120842369Y-113385440D01*
X121336790Y-113715801D01*
X121920000Y-113831809D01*
X122503210Y-113715801D01*
X122997631Y-113385440D01*
X123190000Y-113097539D01*
X123382369Y-113385440D01*
X123876790Y-113715801D01*
X124460000Y-113831809D01*
X125043210Y-113715801D01*
X125537631Y-113385440D01*
X125730000Y-113097539D01*
X125922369Y-113385440D01*
X126416790Y-113715801D01*
X127000000Y-113831809D01*
X127583210Y-113715801D01*
X128077631Y-113385440D01*
X128270000Y-113097539D01*
X128462369Y-113385440D01*
X128956790Y-113715801D01*
X129540000Y-113831809D01*
X130123210Y-113715801D01*
X130617631Y-113385440D01*
X130810000Y-113097539D01*
X131002369Y-113385440D01*
X131496790Y-113715801D01*
X132080000Y-113831809D01*
X132663210Y-113715801D01*
X133157631Y-113385440D01*
X133350000Y-113097539D01*
X133542369Y-113385440D01*
X134036790Y-113715801D01*
X134620000Y-113831809D01*
X135203210Y-113715801D01*
X135697631Y-113385440D01*
X136027992Y-112891019D01*
X136144000Y-112307809D01*
X136144000Y-111212191D01*
X136027992Y-110628981D01*
X135697631Y-110134560D01*
X135203210Y-109804199D01*
X134620000Y-109688191D01*
X134036790Y-109804199D01*
X133542369Y-110134560D01*
X133350000Y-110422461D01*
X133157631Y-110134560D01*
X132663210Y-109804199D01*
X132080000Y-109688191D01*
X131496790Y-109804199D01*
X131002369Y-110134560D01*
X130810000Y-110422461D01*
X130617631Y-110134560D01*
X130123210Y-109804199D01*
X129540000Y-109688191D01*
X128956790Y-109804199D01*
X128462369Y-110134560D01*
X128270000Y-110422461D01*
X128077631Y-110134560D01*
X127583210Y-109804199D01*
X127000000Y-109688191D01*
X126416790Y-109804199D01*
X125922369Y-110134560D01*
X125730000Y-110422461D01*
X125537631Y-110134560D01*
X125043210Y-109804199D01*
X124460000Y-109688191D01*
X123876790Y-109804199D01*
X123382369Y-110134560D01*
X123190000Y-110422461D01*
X122997631Y-110134560D01*
X122503210Y-109804199D01*
X121920000Y-109688191D01*
X121336790Y-109804199D01*
X120842369Y-110134560D01*
X120512008Y-110628981D01*
X120396000Y-111212191D01*
X118364000Y-111212191D01*
X118364000Y-111212191D01*
X118247992Y-110628981D01*
X117917631Y-110134560D01*
X117423210Y-109804199D01*
X116840000Y-109688191D01*
X116256790Y-109804199D01*
X115762369Y-110134560D01*
X115674162Y-110266571D01*
X115493980Y-110008434D01*
X114830382Y-109648437D01*
X114573000Y-109820550D01*
X114573000Y-111487000D01*
X114593000Y-111487000D01*
X114593000Y-112033000D01*
X114573000Y-112033000D01*
X114573000Y-113699450D01*
X114830382Y-113871563D01*
X115316000Y-113608119D01*
X115316000Y-114300000D01*
X115432008Y-114883210D01*
X115721189Y-115316000D01*
X115762369Y-115377631D01*
X117032369Y-116647631D01*
X117526790Y-116977992D01*
X118110000Y-117094000D01*
X119383738Y-117094000D01*
X119761000Y-117471262D01*
X119761000Y-121288738D01*
X118748738Y-122301000D01*
X100326262Y-122301000D01*
X99314000Y-121288738D01*
X99314000Y-119084044D01*
X102427704Y-119084044D01*
X102687791Y-119713503D01*
X103168964Y-120195517D01*
X103797968Y-120456702D01*
X104479044Y-120457296D01*
X105108503Y-120197209D01*
X105418252Y-119888000D01*
X107941984Y-119888000D01*
X108248964Y-120195517D01*
X108877968Y-120456702D01*
X109559044Y-120457296D01*
X110188503Y-120197209D01*
X110192813Y-120192907D01*
X110257192Y-120290913D01*
X110510432Y-120461852D01*
X110810000Y-120521928D01*
X112710000Y-120521928D01*
X113000548Y-120465555D01*
X113255913Y-120297808D01*
X113426852Y-120044568D01*
X113432782Y-120015000D01*
X114983833Y-120015000D01*
X115205893Y-120237448D01*
X115853081Y-120506184D01*
X116553845Y-120506795D01*
X117201501Y-120239190D01*
X117697448Y-119744107D01*
X117966184Y-119096919D01*
X117966795Y-118396155D01*
X117699190Y-117748499D01*
X117204107Y-117252552D01*
X116556919Y-116983816D01*
X115856155Y-116983205D01*
X115208499Y-117250810D01*
X114983918Y-117475000D01*
X113434542Y-117475000D01*
X113430555Y-117454452D01*
X113262808Y-117199087D01*
X113009568Y-117028148D01*
X112710000Y-116968072D01*
X110810000Y-116968072D01*
X110519452Y-117024445D01*
X110363000Y-117127217D01*
X110363000Y-113287608D01*
X110385838Y-113253429D01*
X110566020Y-113511566D01*
X111229618Y-113871563D01*
X111487000Y-113699450D01*
X111487000Y-112033000D01*
X112033000Y-112033000D01*
X112033000Y-113699450D01*
X112290382Y-113871563D01*
X112953980Y-113511566D01*
X113030000Y-113402656D01*
X113106020Y-113511566D01*
X113769618Y-113871563D01*
X114027000Y-113699450D01*
X114027000Y-112033000D01*
X112033000Y-112033000D01*
X111487000Y-112033000D01*
X111487000Y-112033000D01*
X111467000Y-112033000D01*
X111467000Y-111487000D01*
X111487000Y-111487000D01*
X111487000Y-109820550D01*
X112033000Y-109820550D01*
X112033000Y-111487000D01*
X114027000Y-111487000D01*
X114027000Y-109820550D01*
X113769618Y-109648437D01*
X113106020Y-110008434D01*
X113030000Y-110117344D01*
X112953980Y-110008434D01*
X112290382Y-109648437D01*
X112033000Y-109820550D01*
X111487000Y-109820550D01*
X111487000Y-109820550D01*
X111229618Y-109648437D01*
X110566020Y-110008434D01*
X110385838Y-110266571D01*
X110297631Y-110134560D01*
X109803210Y-109804199D01*
X109220000Y-109688191D01*
X108636790Y-109804199D01*
X108142369Y-110134560D01*
X107950000Y-110422461D01*
X107757631Y-110134560D01*
X107263210Y-109804199D01*
X106680000Y-109688191D01*
X106096790Y-109804199D01*
X105602369Y-110134560D01*
X105410000Y-110422461D01*
X105217631Y-110134560D01*
X104723210Y-109804199D01*
X104140000Y-109688191D01*
X103556790Y-109804199D01*
X103062369Y-110134560D01*
X102732008Y-110628981D01*
X102616000Y-111212191D01*
X102616000Y-112307809D01*
X102732008Y-112891019D01*
X103062369Y-113385440D01*
X103556790Y-113715801D01*
X104140000Y-113831809D01*
X104723210Y-113715801D01*
X105217631Y-113385440D01*
X105410000Y-113097539D01*
X105602369Y-113385440D01*
X106096790Y-113715801D01*
X106680000Y-113831809D01*
X107263210Y-113715801D01*
X107757631Y-113385440D01*
X107950000Y-113097539D01*
X108077000Y-113287608D01*
X108077000Y-117466984D01*
X107941748Y-117602000D01*
X105418016Y-117602000D01*
X105111036Y-117294483D01*
X104482032Y-117033298D01*
X103800956Y-117032704D01*
X103171497Y-117292791D01*
X102689483Y-117773964D01*
X102428298Y-118402968D01*
X102427704Y-119084044D01*
X99314000Y-119084044D01*
X99314000Y-115649835D01*
X99511641Y-115452538D01*
X99821646Y-114705963D01*
X99822352Y-113897584D01*
X99513650Y-113150468D01*
X98942538Y-112578359D01*
X98195963Y-112268354D01*
X97387584Y-112267648D01*
X96640468Y-112576350D01*
X96068359Y-113147462D01*
X95758354Y-113894037D01*
X95757648Y-114702416D01*
X96066350Y-115449532D01*
X96266000Y-115649531D01*
X96266000Y-121288738D01*
X90808738Y-126746000D01*
X83771928Y-126746000D01*
X83771928Y-126420000D01*
X83715555Y-126129452D01*
X83547808Y-125874087D01*
X83294568Y-125703148D01*
X82995000Y-125643072D01*
X81282905Y-125643072D01*
X81480873Y-125445103D01*
X81622000Y-125104392D01*
X81622000Y-124556640D01*
X87284440Y-124556640D01*
X87372478Y-124882906D01*
X88088264Y-125095595D01*
X88830957Y-125018174D01*
X89157522Y-124882906D01*
X89245560Y-124556640D01*
X88265000Y-123576080D01*
X87284440Y-124556640D01*
X81622000Y-124556640D01*
X81622000Y-124174750D01*
X81390250Y-123943000D01*
X79118000Y-123943000D01*
X79118000Y-125615250D01*
X79349750Y-125847000D01*
X79979826Y-125847000D01*
X79949087Y-125867192D01*
X79778148Y-126120432D01*
X79718072Y-126420000D01*
X79718072Y-130120000D01*
X79774445Y-130410548D01*
X79942192Y-130665913D01*
X80195432Y-130836852D01*
X80221000Y-130841979D01*
X80221000Y-134793738D01*
X78402608Y-136612130D01*
X78252808Y-136384087D01*
X77999568Y-136213148D01*
X77700000Y-136153072D01*
X74700000Y-136153072D01*
X74409452Y-136209445D01*
X74154087Y-136377192D01*
X73983148Y-136630432D01*
X73923072Y-136930000D01*
X71247000Y-136930000D01*
X71247000Y-128774750D01*
X73268000Y-128774750D01*
X73268000Y-130304392D01*
X73409127Y-130645103D01*
X73669896Y-130905873D01*
X74010608Y-131047000D01*
X74940250Y-131047000D01*
X75172000Y-130815250D01*
X75172000Y-128543000D01*
X75718000Y-128543000D01*
X75718000Y-130815250D01*
X75949750Y-131047000D01*
X76879392Y-131047000D01*
X77220104Y-130905873D01*
X77480873Y-130645103D01*
X77622000Y-130304392D01*
X77622000Y-128774750D01*
X77390250Y-128543000D01*
X75718000Y-128543000D01*
X75172000Y-128543000D01*
X75172000Y-128543000D01*
X73499750Y-128543000D01*
X73268000Y-128774750D01*
X71247000Y-128774750D01*
X71247000Y-126235608D01*
X73268000Y-126235608D01*
X73268000Y-127765250D01*
X73499750Y-127997000D01*
X75172000Y-127997000D01*
X75172000Y-125724750D01*
X75718000Y-125724750D01*
X75718000Y-127997000D01*
X77390250Y-127997000D01*
X77622000Y-127765250D01*
X77622000Y-126235608D01*
X77480873Y-125894897D01*
X77432976Y-125847000D01*
X78340250Y-125847000D01*
X78572000Y-125615250D01*
X78572000Y-123943000D01*
X76299750Y-123943000D01*
X76068000Y-124174750D01*
X76068000Y-125104392D01*
X76209127Y-125445103D01*
X76257024Y-125493000D01*
X75949750Y-125493000D01*
X75718000Y-125724750D01*
X75172000Y-125724750D01*
X75172000Y-125724750D01*
X74940250Y-125493000D01*
X74010608Y-125493000D01*
X73669896Y-125634127D01*
X73409127Y-125894897D01*
X73268000Y-126235608D01*
X71247000Y-126235608D01*
X71247000Y-122235608D01*
X76068000Y-122235608D01*
X76068000Y-123165250D01*
X76299750Y-123397000D01*
X78572000Y-123397000D01*
X78572000Y-121724750D01*
X79118000Y-121724750D01*
X79118000Y-123397000D01*
X81390250Y-123397000D01*
X81622000Y-123165250D01*
X81622000Y-123013264D01*
X86359405Y-123013264D01*
X86436826Y-123755957D01*
X86572094Y-124082522D01*
X86898360Y-124170560D01*
X87878920Y-123190000D01*
X88651080Y-123190000D01*
X89631640Y-124170560D01*
X89957906Y-124082522D01*
X90170595Y-123366736D01*
X90093174Y-122624043D01*
X89957906Y-122297478D01*
X89631640Y-122209440D01*
X88651080Y-123190000D01*
X87878920Y-123190000D01*
X87878920Y-123190000D01*
X86898360Y-122209440D01*
X86572094Y-122297478D01*
X86359405Y-123013264D01*
X81622000Y-123013264D01*
X81622000Y-122235608D01*
X81480873Y-121894897D01*
X81409337Y-121823360D01*
X87284440Y-121823360D01*
X88265000Y-122803920D01*
X89245560Y-121823360D01*
X89157522Y-121497094D01*
X88441736Y-121284405D01*
X87699043Y-121361826D01*
X87372478Y-121497094D01*
X87284440Y-121823360D01*
X81409337Y-121823360D01*
X81220104Y-121634127D01*
X80879392Y-121493000D01*
X79349750Y-121493000D01*
X79118000Y-121724750D01*
X78572000Y-121724750D01*
X78572000Y-121724750D01*
X78340250Y-121493000D01*
X76810608Y-121493000D01*
X76469896Y-121634127D01*
X76209127Y-121894897D01*
X76068000Y-122235608D01*
X71247000Y-122235608D01*
X71247000Y-114804750D01*
X90513000Y-114804750D01*
X90513000Y-115754392D01*
X90654127Y-116095103D01*
X90914896Y-116355873D01*
X91255608Y-116497000D01*
X92205250Y-116497000D01*
X92437000Y-116265250D01*
X92437000Y-114573000D01*
X92983000Y-114573000D01*
X92983000Y-116265250D01*
X93214750Y-116497000D01*
X94164392Y-116497000D01*
X94505104Y-116355873D01*
X94765873Y-116095103D01*
X94907000Y-115754392D01*
X94907000Y-114804750D01*
X94675250Y-114573000D01*
X92983000Y-114573000D01*
X92437000Y-114573000D01*
X92437000Y-114573000D01*
X90744750Y-114573000D01*
X90513000Y-114804750D01*
X71247000Y-114804750D01*
X71247000Y-112845608D01*
X90513000Y-112845608D01*
X90513000Y-113795250D01*
X90744750Y-114027000D01*
X92437000Y-114027000D01*
X92437000Y-112334750D01*
X92983000Y-112334750D01*
X92983000Y-114027000D01*
X94675250Y-114027000D01*
X94907000Y-113795250D01*
X94907000Y-112845608D01*
X94765873Y-112504897D01*
X94505104Y-112244127D01*
X94164392Y-112103000D01*
X93214750Y-112103000D01*
X92983000Y-112334750D01*
X92437000Y-112334750D01*
X92437000Y-112334750D01*
X92205250Y-112103000D01*
X91255608Y-112103000D01*
X90914896Y-112244127D01*
X90654127Y-112504897D01*
X90513000Y-112845608D01*
X71247000Y-112845608D01*
X71247000Y-109347000D01*
X137033000Y-109347000D01*
X137033000Y-111759994D01*
M02*
